<?xml version="1.0" encoding="UTF-8" standalone="no"?>
<svg width="771.878mm" height="25.4mm"
 xmlns="http://www.w3.org/2000/svg" xmlns:xlink="http://www.w3.org/1999/xlink"  version="1.2" baseProfile="tiny">
<title>Qt SVG Document</title>
<desc>Generated with Qt</desc>
<defs>
</defs>
<g fill="none" stroke="black" stroke-width="1" fill-rule="evenodd" stroke-linecap="square" stroke-linejoin="bevel" >

<g fill="none" stroke="#000000" stroke-opacity="1" stroke-width="1" stroke-linecap="square" stroke-linejoin="bevel" transform="matrix(1,0,0,1,0,0)"
font-family="Ubuntu" font-size="11" font-weight="400" font-style="normal" 
>
</g>

<g fill="none" stroke="#000000" stroke-opacity="1" stroke-width="1" stroke-linecap="square" stroke-linejoin="bevel" transform="matrix(1,0,0,1,0,0)"
font-family="Ubuntu" font-size="11" font-weight="400" font-style="normal" 
>
</g>

<g fill="none" stroke="#000000" stroke-opacity="1" stroke-width="1" stroke-linecap="square" stroke-linejoin="bevel" transform="matrix(1.99983,0,0,1.99983,-0.00319973,71.994)"
font-family="Ubuntu" font-size="11" font-weight="400" font-style="normal" 
>
</g>

<g fill="#ffffff" fill-opacity="1" stroke="none" transform="matrix(1.99983,0,0,1.99983,-0.00319973,71.994)"
font-family="Ubuntu" font-size="11" font-weight="400" font-style="normal" 
>
<rect x="0.0016" y="-36" width="1094.09" height="36"/>
</g>

<g fill="none" stroke="#000000" stroke-opacity="1" stroke-width="1" stroke-linecap="square" stroke-linejoin="bevel" transform="matrix(1.99983,0,0,1.99983,-0.00319973,71.994)"
font-family="Ubuntu" font-size="11" font-weight="400" font-style="normal" 
>
</g>

<g fill="none" stroke="#000000" stroke-opacity="1" stroke-width="1" stroke-linecap="square" stroke-linejoin="bevel" transform="matrix(1.99983,0,0,1.99983,-0.00319973,71.994)"
font-family="Ubuntu" font-size="11" font-weight="400" font-style="normal" 
>
</g>

<g fill="none" stroke="#000000" stroke-opacity="1" stroke-width="1" stroke-linecap="square" stroke-linejoin="bevel" transform="matrix(1.99983,0,0,1.99983,-0.00319973,71.994)"
font-family="Ubuntu" font-size="11" font-weight="400" font-style="normal" 
>
</g>

<g fill="none" stroke="#000000" stroke-opacity="1" stroke-width="1" stroke-linecap="square" stroke-linejoin="bevel" transform="matrix(1.99983,0,0,1.99983,-0.00319973,71.994)"
font-family="Ubuntu" font-size="11" font-weight="400" font-style="normal" 
>
</g>

<g fill="none" stroke="#000000" stroke-opacity="1" stroke-width="1" stroke-linecap="square" stroke-linejoin="round" transform="matrix(1.99983,0,0,1.99983,-0.00319973,71.994)"
font-family="Ubuntu" font-size="11" font-weight="400" font-style="normal" 
>
<rect x="704.782" y="-35.5" width="210.997" height="35"/>
</g>

<g fill="none" stroke="#000000" stroke-opacity="1" stroke-width="1" stroke-linecap="square" stroke-linejoin="bevel" transform="matrix(1.99983,0,0,1.99983,-0.00319973,71.994)"
font-family="Ubuntu" font-size="11" font-weight="400" font-style="normal" 
>
</g>

<g fill="none" stroke="#000000" stroke-opacity="1" stroke-width="1" stroke-linecap="square" stroke-linejoin="bevel" transform="matrix(1.99983,0,0,1.99983,1470.51,21.9982)"
font-family="Ubuntu" font-size="11" font-weight="400" font-style="normal" 
>
</g>

<g fill="none" stroke="#000000" stroke-opacity="1" stroke-width="1" stroke-linecap="square" stroke-linejoin="bevel" transform="matrix(1.99983,0,0,1.99983,1470.51,21.9982)"
font-family="sans" font-size="11" font-weight="100" font-style="normal" 
>
</g>

<g fill="#000000" fill-opacity="1" stroke="#000000" stroke-opacity="1" stroke-width="1" stroke-linecap="square" stroke-linejoin="round" transform="matrix(1.99983,0,0,1.99983,1470.51,21.9982)"
font-family="sans" font-size="11" font-weight="100" font-style="normal" 
>
<path vector-effect="none" fill-rule="nonzero" d="M2.79688,2.98438 L3.70313,2.98438 L0.90625,12.0156 L0,12.0156 L2.79688,2.98438 M5.71875,3.28125 L5.71875,4.98438 L7.75,4.98438 L7.75,5.75 L5.71875,5.75 L5.71875,9.01563 C5.71875,9.50521 5.78646,9.82031 5.92188,9.96094 C6.05729,10.1016 6.32813,10.1719 6.73438,10.1719 L7.75,10.1719 L7.75,11 L6.73438,11 C5.97396,11 5.44792,10.8568 5.15625,10.5703 C4.86458,10.2839 4.71875,9.76563 4.71875,9.01563 L4.71875,5.75 L4,5.75 L4,4.98438 L4.71875,4.98438 L4.71875,3.28125 L5.71875,3.28125 M8.95313,8.625 L8.95313,4.98438 L9.9375,4.98438 L9.9375,8.59375 C9.9375,9.15625 10.0495,9.58073 10.2734,9.86719 C10.4974,10.1536 10.8281,10.2969 11.2656,10.2969 C11.8073,10.2969 12.2318,10.1276 12.5391,9.78906 C12.8464,9.45052 13,8.98438 13,8.39063 L13,4.98438 L13.9844,4.98438 L13.9844,11 L13,11 L13,10.0781 C12.7604,10.4427 12.4818,10.7135 12.1641,10.8906 C11.8464,11.0677 11.4792,11.1563 11.0625,11.1563 C10.375,11.1563 9.85156,10.9401 9.49219,10.5078 C9.13281,10.0755 8.95313,9.44792 8.95313,8.625 M19.5,5.90625 C19.3958,5.84375 19.2786,5.79688 19.1484,5.76563 C19.0182,5.73438 18.875,5.71875 18.7188,5.71875 C18.1563,5.71875 17.7266,5.90104 17.4297,6.26563 C17.1328,6.63021 16.9844,7.15104 16.9844,7.82813 L16.9844,11 L15.9844,11 L15.9844,4.98438 L16.9844,4.98438 L16.9844,5.92188 C17.1823,5.55729 17.4479,5.28646 17.7813,5.10938 C18.1146,4.93229 18.5208,4.84375 19,4.84375 C19.0729,4.84375 19.1484,4.84635 19.2266,4.85156 C19.3047,4.85677 19.3958,4.86979 19.5,4.89063 L19.5,5.90625 M21.5156,3.28125 L21.5156,4.98438 L23.5469,4.98438 L23.5469,5.75 L21.5156,5.75 L21.5156,9.01563 C21.5156,9.50521 21.5833,9.82031 21.7188,9.96094 C21.8542,10.1016 22.125,10.1719 22.5313,10.1719 L23.5469,10.1719 L23.5469,11 L22.5313,11 C21.7708,11 21.2448,10.8568 20.9531,10.5703 C20.6615,10.2839 20.5156,9.76563 20.5156,9.01563 L20.5156,5.75 L19.7969,5.75 L19.7969,4.98438 L20.5156,4.98438 L20.5156,3.28125 L21.5156,3.28125 M24.8438,2.64063 L25.8438,2.64063 L25.8438,11 L24.8438,11 L24.8438,2.64063 M33.0469,7.75 L33.0469,8.23438 L28.5,8.23438 C28.5417,8.91146 28.7448,9.42708 29.1094,9.78125 C29.474,10.1354 29.9844,10.3125 30.6406,10.3125 C31.026,10.3125 31.3958,10.2656 31.75,10.1719 C32.1042,10.0781 32.4583,9.94271 32.8125,9.76563 L32.8125,10.6875 C32.4583,10.8438 32.0938,10.9609 31.7188,11.0391 C31.3438,11.1172 30.9688,11.1563 30.5938,11.1563 C29.625,11.1563 28.862,10.8776 28.3047,10.3203 C27.7474,9.76302 27.4688,9.00521 27.4688,8.04688 C27.4688,7.06771 27.7344,6.28906 28.2656,5.71094 C28.7969,5.13281 29.5156,4.84375 30.4219,4.84375 C31.224,4.84375 31.862,5.10417 32.3359,5.625 C32.8099,6.14583 33.0469,6.85417 33.0469,7.75 M32.0469,7.45313 C32.0469,6.91146 31.8984,6.47917 31.6016,6.15625 C31.3047,5.83333 30.9115,5.67188 30.4219,5.67188 C29.8698,5.67188 29.4297,5.82813 29.1016,6.14063 C28.7734,6.45313 28.5833,6.89063 28.5313,7.45313 L32.0469,7.45313 M38.5,5.15625 L38.5,6.09375 C38.2188,5.94792 37.9271,5.84115 37.625,5.77344 C37.3229,5.70573 37.0104,5.67188 36.6875,5.67188 C36.1979,5.67188 35.8307,5.7474 35.5859,5.89844 C35.3411,6.04948 35.2188,6.27083 35.2188,6.5625 C35.2188,6.79167 35.3073,6.97135 35.4844,7.10156 C35.6615,7.23177 36.0156,7.35938 36.5469,7.48438 L36.875,7.5625 C37.5833,7.70833 38.0833,7.91927 38.375,8.19531 C38.6667,8.47135 38.8125,8.85417 38.8125,9.34375 C38.8125,9.89583 38.5938,10.3359 38.1563,10.6641 C37.7188,10.9922 37.1094,11.1563 36.3281,11.1563 C36.0052,11.1563 35.6693,11.125 35.3203,11.0625 C34.9714,11 34.6042,10.9063 34.2188,10.7813 L34.2188,9.76563 C34.5833,9.95313 34.9427,10.0938 35.2969,10.1875 C35.651,10.2813 36.0052,10.3281 36.3594,10.3281 C36.8177,10.3281 37.1719,10.2474 37.4219,10.0859 C37.6719,9.92448 37.7969,9.70313 37.7969,9.42188 C37.7969,9.15104 37.7083,8.94271 37.5313,8.79688 C37.3542,8.65104 36.9583,8.51563 36.3438,8.39063 L36,8.29688 C35.3854,8.17188 34.9427,7.97656 34.6719,7.71094 C34.401,7.44531 34.2656,7.07813 34.2656,6.60938 C34.2656,6.04688 34.4661,5.61198 34.8672,5.30469 C35.2682,4.9974 35.8385,4.84375 36.5781,4.84375 C36.9427,4.84375 37.2865,4.86979 37.6094,4.92188 C37.9323,4.97396 38.2292,5.05208 38.5,5.15625 M40.375,4.98438 L41.375,4.98438 L41.375,11 L40.375,11 L40.375,4.98438 M40.375,2.64063 L41.375,2.64063 L41.375,3.89063 L40.375,3.89063 L40.375,2.64063 M48.1094,6.14063 C48.3594,5.69271 48.6563,5.36458 49,5.15625 C49.3438,4.94792 49.75,4.84375 50.2188,4.84375 C50.8438,4.84375 51.3255,5.0625 51.6641,5.5 C52.0026,5.9375 52.1719,6.5625 52.1719,7.375 L52.1719,11 L51.1719,11 L51.1719,7.40625 C51.1719,6.82292 51.0703,6.39323 50.8672,6.11719 C50.6641,5.84115 50.3542,5.70313 49.9375,5.70313 C49.4271,5.70313 49.0234,5.8724 48.7266,6.21094 C48.4297,6.54948 48.2813,7.01042 48.2813,7.59375 L48.2813,11 L47.2813,11 L47.2813,7.40625 C47.2813,6.82292 47.1797,6.39323 46.9766,6.11719 C46.7734,5.84115 46.4583,5.70313 46.0313,5.70313 C45.5313,5.70313 45.1328,5.8724 44.8359,6.21094 C44.5391,6.54948 44.3906,7.01042 44.3906,7.59375 L44.3906,11 L43.3906,11 L43.3906,4.98438 L44.3906,4.98438 L44.3906,5.92188 C44.6094,5.54688 44.8776,5.27344 45.1953,5.10156 C45.513,4.92969 45.8854,4.84375 46.3125,4.84375 C46.75,4.84375 47.1224,4.95313 47.4297,5.17188 C47.737,5.39063 47.9635,5.71354 48.1094,6.14063 M55.2031,10.0938 L58.9844,10.0938 L58.9844,11 L53.9063,11 L53.9063,10.0938 C54.3125,9.66667 54.8724,9.09375 55.5859,8.375 C56.2995,7.65625 56.7448,7.19271 56.9219,6.98438 C57.2656,6.58854 57.5078,6.25521 57.6484,5.98438 C57.7891,5.71354 57.8594,5.44792 57.8594,5.1875 C57.8594,4.76042 57.7109,4.41406 57.4141,4.14844 C57.1172,3.88281 56.724,3.75 56.2344,3.75 C55.901,3.75 55.5443,3.8099 55.1641,3.92969 C54.7839,4.04948 54.3802,4.22917 53.9531,4.46875 L53.9531,3.375 C54.3906,3.19792 54.7995,3.0625 55.1797,2.96875 C55.5599,2.875 55.9063,2.82813 56.2188,2.82813 C57.0521,2.82813 57.7161,3.03646 58.2109,3.45313 C58.7057,3.86979 58.9531,4.42708 58.9531,5.125 C58.9531,5.45833 58.8906,5.77083 58.7656,6.0625 C58.6406,6.35417 58.4167,6.70313 58.0938,7.10938 C58,7.21354 57.7135,7.51302 57.2344,8.00781 C56.7552,8.5026 56.0781,9.19792 55.2031,10.0938 M62.875,2.98438 L63.7813,2.98438 L60.9844,12.0156 L60.0781,12.0156 L62.875,2.98438 M65.7969,3.28125 L65.7969,4.98438 L67.8281,4.98438 L67.8281,5.75 L65.7969,5.75 L65.7969,9.01563 C65.7969,9.50521 65.8646,9.82031 66,9.96094 C66.1354,10.1016 66.4063,10.1719 66.8125,10.1719 L67.8281,10.1719 L67.8281,11 L66.8125,11 C66.0521,11 65.526,10.8568 65.2344,10.5703 C64.9427,10.2839 64.7969,9.76563 64.7969,9.01563 L64.7969,5.75 L64.0781,5.75 L64.0781,4.98438 L64.7969,4.98438 L64.7969,3.28125 L65.7969,3.28125 M69.0313,8.625 L69.0313,4.98438 L70.0156,4.98438 L70.0156,8.59375 C70.0156,9.15625 70.1276,9.58073 70.3516,9.86719 C70.5755,10.1536 70.9063,10.2969 71.3438,10.2969 C71.8854,10.2969 72.3099,10.1276 72.6172,9.78906 C72.9245,9.45052 73.0781,8.98438 73.0781,8.39063 L73.0781,4.98438 L74.0625,4.98438 L74.0625,11 L73.0781,11 L73.0781,10.0781 C72.8385,10.4427 72.5599,10.7135 72.2422,10.8906 C71.9245,11.0677 71.5573,11.1563 71.1406,11.1563 C70.4531,11.1563 69.9297,10.9401 69.5703,10.5078 C69.2109,10.0755 69.0313,9.44792 69.0313,8.625 M79.5781,5.90625 C79.474,5.84375 79.3568,5.79688 79.2266,5.76563 C79.0964,5.73438 78.9531,5.71875 78.7969,5.71875 C78.2344,5.71875 77.8047,5.90104 77.5078,6.26563 C77.2109,6.63021 77.0625,7.15104 77.0625,7.82813 L77.0625,11 L76.0625,11 L76.0625,4.98438 L77.0625,4.98438 L77.0625,5.92188 C77.2604,5.55729 77.526,5.28646 77.8594,5.10938 C78.1927,4.93229 78.599,4.84375 79.0781,4.84375 C79.151,4.84375 79.2266,4.84635 79.3047,4.85156 C79.3828,4.85677 79.474,4.86979 79.5781,4.89063 L79.5781,5.90625 M81.5938,3.28125 L81.5938,4.98438 L83.625,4.98438 L83.625,5.75 L81.5938,5.75 L81.5938,9.01563 C81.5938,9.50521 81.6615,9.82031 81.7969,9.96094 C81.9323,10.1016 82.2031,10.1719 82.6094,10.1719 L83.625,10.1719 L83.625,11 L82.6094,11 C81.849,11 81.3229,10.8568 81.0313,10.5703 C80.7396,10.2839 80.5938,9.76563 80.5938,9.01563 L80.5938,5.75 L79.875,5.75 L79.875,4.98438 L80.5938,4.98438 L80.5938,3.28125 L81.5938,3.28125 M84.9219,2.64063 L85.9219,2.64063 L85.9219,11 L84.9219,11 L84.9219,2.64063 M93.125,7.75 L93.125,8.23438 L88.5781,8.23438 C88.6198,8.91146 88.8229,9.42708 89.1875,9.78125 C89.5521,10.1354 90.0625,10.3125 90.7188,10.3125 C91.1042,10.3125 91.474,10.2656 91.8281,10.1719 C92.1823,10.0781 92.5365,9.94271 92.8906,9.76563 L92.8906,10.6875 C92.5365,10.8438 92.1719,10.9609 91.7969,11.0391 C91.4219,11.1172 91.0469,11.1563 90.6719,11.1563 C89.7031,11.1563 88.9401,10.8776 88.3828,10.3203 C87.8255,9.76302 87.5469,9.00521 87.5469,8.04688 C87.5469,7.06771 87.8125,6.28906 88.3438,5.71094 C88.875,5.13281 89.5938,4.84375 90.5,4.84375 C91.3021,4.84375 91.9401,5.10417 92.4141,5.625 C92.888,6.14583 93.125,6.85417 93.125,7.75 M92.125,7.45313 C92.125,6.91146 91.9766,6.47917 91.6797,6.15625 C91.3828,5.83333 90.9896,5.67188 90.5,5.67188 C89.9479,5.67188 89.5078,5.82813 89.1797,6.14063 C88.8516,6.45313 88.6615,6.89063 88.6094,7.45313 L92.125,7.45313 M95.0625,10.0938 L96.8438,10.0938 L96.8438,3.96875 L94.9063,4.35938 L94.9063,3.375 L96.8281,2.98438 L97.9219,2.98438 L97.9219,10.0938 L99.6875,10.0938 L99.6875,11 L95.0625,11 L95.0625,10.0938 M103.484,2.98438 L104.391,2.98438 L101.594,12.0156 L100.688,12.0156 L103.484,2.98438 M109.75,5.21875 L109.75,6.14063 C109.479,5.98438 109.203,5.86719 108.922,5.78906 C108.641,5.71094 108.354,5.67188 108.063,5.67188 C107.427,5.67188 106.932,5.875 106.578,6.28125 C106.224,6.6875 106.047,7.26042 106.047,8 C106.047,8.72917 106.224,9.29688 106.578,9.70313 C106.932,10.1094 107.427,10.3125 108.063,10.3125 C108.354,10.3125 108.641,10.276 108.922,10.2031 C109.203,10.1302 109.479,10.0156 109.75,9.85938 L109.75,10.7656 C109.479,10.901 109.195,11 108.898,11.0625 C108.602,11.125 108.286,11.1563 107.953,11.1563 C107.047,11.1563 106.328,10.8724 105.797,10.3047 C105.266,9.73698 105,8.96875 105,8 C105,7.02083 105.268,6.25 105.805,5.6875 C106.341,5.125 107.078,4.84375 108.016,4.84375 C108.328,4.84375 108.628,4.875 108.914,4.9375 C109.201,5 109.479,5.09375 109.75,5.21875 M116.156,6.14063 C116.406,5.69271 116.703,5.36458 117.047,5.15625 C117.391,4.94792 117.797,4.84375 118.266,4.84375 C118.891,4.84375 119.372,5.0625 119.711,5.5 C120.049,5.9375 120.219,6.5625 120.219,7.375 L120.219,11 L119.219,11 L119.219,7.40625 C119.219,6.82292 119.117,6.39323 118.914,6.11719 C118.711,5.84115 118.401,5.70313 117.984,5.70313 C117.474,5.70313 117.07,5.8724 116.773,6.21094 C116.477,6.54948 116.328,7.01042 116.328,7.59375 L116.328,11 L115.328,11 L115.328,7.40625 C115.328,6.82292 115.227,6.39323 115.023,6.11719 C114.82,5.84115 114.505,5.70313 114.078,5.70313 C113.578,5.70313 113.18,5.8724 112.883,6.21094 C112.586,6.54948 112.438,7.01042 112.438,7.59375 L112.438,11 L111.438,11 L111.438,4.98438 L112.438,4.98438 L112.438,5.92188 C112.656,5.54688 112.924,5.27344 113.242,5.10156 C113.56,4.92969 113.932,4.84375 114.359,4.84375 C114.797,4.84375 115.169,4.95313 115.477,5.17188 C115.784,5.39063 116.01,5.71354 116.156,6.14063 M126.141,5.89063 L126.141,2.64063 L127.125,2.64063 L127.125,11 L126.141,11 L126.141,10.0938 C125.932,10.4583 125.669,10.7266 125.352,10.8984 C125.034,11.0703 124.651,11.1563 124.203,11.1563 C123.484,11.1563 122.896,10.8672 122.438,10.2891 C121.979,9.71094 121.75,8.94792 121.75,8 C121.75,7.05208 121.979,6.28906 122.438,5.71094 C122.896,5.13281 123.484,4.84375 124.203,4.84375 C124.651,4.84375 125.034,4.92969 125.352,5.10156 C125.669,5.27344 125.932,5.53646 126.141,5.89063 M122.766,8 C122.766,8.72917 122.917,9.29948 123.219,9.71094 C123.521,10.1224 123.932,10.3281 124.453,10.3281 C124.974,10.3281 125.385,10.1224 125.688,9.71094 C125.99,9.29948 126.141,8.72917 126.141,8 C126.141,7.27083 125.99,6.70052 125.688,6.28906 C125.385,5.8776 124.974,5.67188 124.453,5.67188 C123.932,5.67188 123.521,5.8776 123.219,6.28906 C122.917,6.70052 122.766,7.27083 122.766,8 M133.719,12.8281 L133.719,13.5938 L128,13.5938 L128,12.8281 L133.719,12.8281 M133.938,4.98438 L134.984,4.98438 L136.859,10.0313 L138.75,4.98438 L139.797,4.98438 L137.531,11 L136.188,11 L133.938,4.98438 M146.297,7.75 L146.297,8.23438 L141.75,8.23438 C141.792,8.91146 141.995,9.42708 142.359,9.78125 C142.724,10.1354 143.234,10.3125 143.891,10.3125 C144.276,10.3125 144.646,10.2656 145,10.1719 C145.354,10.0781 145.708,9.94271 146.063,9.76563 L146.063,10.6875 C145.708,10.8438 145.344,10.9609 144.969,11.0391 C144.594,11.1172 144.219,11.1563 143.844,11.1563 C142.875,11.1563 142.112,10.8776 141.555,10.3203 C140.997,9.76302 140.719,9.00521 140.719,8.04688 C140.719,7.06771 140.984,6.28906 141.516,5.71094 C142.047,5.13281 142.766,4.84375 143.672,4.84375 C144.474,4.84375 145.112,5.10417 145.586,5.625 C146.06,6.14583 146.297,6.85417 146.297,7.75 M145.297,7.45313 C145.297,6.91146 145.148,6.47917 144.852,6.15625 C144.555,5.83333 144.161,5.67188 143.672,5.67188 C143.12,5.67188 142.68,5.82813 142.352,6.14063 C142.023,6.45313 141.833,6.89063 141.781,7.45313 L145.297,7.45313 M147.906,2.64063 L148.906,2.64063 L148.906,11 L147.906,11 L147.906,2.64063"/>
</g>

<g fill="none" stroke="#000000" stroke-opacity="1" stroke-width="1" stroke-linecap="square" stroke-linejoin="bevel" transform="matrix(1.99983,0,0,1.99983,1470.51,21.9982)"
font-family="sans" font-size="11" font-weight="100" font-style="normal" 
>
</g>

<g fill="none" stroke="#000000" stroke-opacity="1" stroke-width="1" stroke-linecap="square" stroke-linejoin="bevel" transform="matrix(1.99983,0,0,1.99983,1470.51,21.9982)"
font-family="Ubuntu" font-size="11" font-weight="400" font-style="normal" 
>
</g>

<g fill="none" stroke="#000000" stroke-opacity="1" stroke-width="1" stroke-linecap="square" stroke-linejoin="bevel" transform="matrix(1.99983,0,0,1.99983,-0.00319973,71.994)"
font-family="Ubuntu" font-size="11" font-weight="400" font-style="normal" 
>
</g>

<g fill="none" stroke="#000000" stroke-opacity="1" stroke-width="1" stroke-linecap="square" stroke-linejoin="bevel" transform="matrix(1.99983,0,0,1.99983,-0.00319973,71.994)"
font-family="Ubuntu" font-size="11" font-weight="400" font-style="normal" 
>
</g>

<g fill="none" stroke="#000000" stroke-opacity="1" stroke-width="1" stroke-linecap="square" stroke-linejoin="bevel" transform="matrix(1.99983,0,0,1.99983,-0.00319973,71.994)"
font-family="Ubuntu" font-size="11" font-weight="400" font-style="normal" 
>
</g>

<g fill="none" stroke="#000000" stroke-opacity="1" stroke-width="1" stroke-linecap="square" stroke-linejoin="round" transform="matrix(1.99983,0,0,1.99983,-0.00319973,71.994)"
font-family="Ubuntu" font-size="11" font-weight="400" font-style="normal" 
>
<ellipse cx="1012.2" cy="-18" rx="81.3928" ry="17.5"/>
</g>

<g fill="none" stroke="#000000" stroke-opacity="1" stroke-width="1" stroke-linecap="square" stroke-linejoin="bevel" transform="matrix(1.99983,0,0,1.99983,-0.00319973,71.994)"
font-family="Ubuntu" font-size="11" font-weight="400" font-style="normal" 
>
</g>

<g fill="none" stroke="#000000" stroke-opacity="1" stroke-width="1" stroke-linecap="square" stroke-linejoin="bevel" transform="matrix(1.99983,0,0,1.99983,1940.98,21.9982)"
font-family="Ubuntu" font-size="11" font-weight="400" font-style="normal" 
>
</g>

<g fill="none" stroke="#000000" stroke-opacity="1" stroke-width="1" stroke-linecap="square" stroke-linejoin="bevel" transform="matrix(1.99983,0,0,1.99983,1940.98,21.9982)"
font-family="sans" font-size="11" font-weight="100" font-style="normal" 
>
</g>

<g fill="#000000" fill-opacity="1" stroke="#000000" stroke-opacity="1" stroke-width="1" stroke-linecap="square" stroke-linejoin="round" transform="matrix(1.99983,0,0,1.99983,1940.98,21.9982)"
font-family="sans" font-size="11" font-weight="100" font-style="normal" 
>
<path vector-effect="none" fill-rule="nonzero" d="M2.79688,2.98438 L3.70313,2.98438 L0.90625,12.0156 L0,12.0156 L2.79688,2.98438 M5.71875,3.28125 L5.71875,4.98438 L7.75,4.98438 L7.75,5.75 L5.71875,5.75 L5.71875,9.01563 C5.71875,9.50521 5.78646,9.82031 5.92188,9.96094 C6.05729,10.1016 6.32813,10.1719 6.73438,10.1719 L7.75,10.1719 L7.75,11 L6.73438,11 C5.97396,11 5.44792,10.8568 5.15625,10.5703 C4.86458,10.2839 4.71875,9.76563 4.71875,9.01563 L4.71875,5.75 L4,5.75 L4,4.98438 L4.71875,4.98438 L4.71875,3.28125 L5.71875,3.28125 M8.95313,8.625 L8.95313,4.98438 L9.9375,4.98438 L9.9375,8.59375 C9.9375,9.15625 10.0495,9.58073 10.2734,9.86719 C10.4974,10.1536 10.8281,10.2969 11.2656,10.2969 C11.8073,10.2969 12.2318,10.1276 12.5391,9.78906 C12.8464,9.45052 13,8.98438 13,8.39063 L13,4.98438 L13.9844,4.98438 L13.9844,11 L13,11 L13,10.0781 C12.7604,10.4427 12.4818,10.7135 12.1641,10.8906 C11.8464,11.0677 11.4792,11.1563 11.0625,11.1563 C10.375,11.1563 9.85156,10.9401 9.49219,10.5078 C9.13281,10.0755 8.95313,9.44792 8.95313,8.625 M19.5,5.90625 C19.3958,5.84375 19.2786,5.79688 19.1484,5.76563 C19.0182,5.73438 18.875,5.71875 18.7188,5.71875 C18.1563,5.71875 17.7266,5.90104 17.4297,6.26563 C17.1328,6.63021 16.9844,7.15104 16.9844,7.82813 L16.9844,11 L15.9844,11 L15.9844,4.98438 L16.9844,4.98438 L16.9844,5.92188 C17.1823,5.55729 17.4479,5.28646 17.7813,5.10938 C18.1146,4.93229 18.5208,4.84375 19,4.84375 C19.0729,4.84375 19.1484,4.84635 19.2266,4.85156 C19.3047,4.85677 19.3958,4.86979 19.5,4.89063 L19.5,5.90625 M21.5156,3.28125 L21.5156,4.98438 L23.5469,4.98438 L23.5469,5.75 L21.5156,5.75 L21.5156,9.01563 C21.5156,9.50521 21.5833,9.82031 21.7188,9.96094 C21.8542,10.1016 22.125,10.1719 22.5313,10.1719 L23.5469,10.1719 L23.5469,11 L22.5313,11 C21.7708,11 21.2448,10.8568 20.9531,10.5703 C20.6615,10.2839 20.5156,9.76563 20.5156,9.01563 L20.5156,5.75 L19.7969,5.75 L19.7969,4.98438 L20.5156,4.98438 L20.5156,3.28125 L21.5156,3.28125 M24.8438,2.64063 L25.8438,2.64063 L25.8438,11 L24.8438,11 L24.8438,2.64063 M33.0469,7.75 L33.0469,8.23438 L28.5,8.23438 C28.5417,8.91146 28.7448,9.42708 29.1094,9.78125 C29.474,10.1354 29.9844,10.3125 30.6406,10.3125 C31.026,10.3125 31.3958,10.2656 31.75,10.1719 C32.1042,10.0781 32.4583,9.94271 32.8125,9.76563 L32.8125,10.6875 C32.4583,10.8438 32.0938,10.9609 31.7188,11.0391 C31.3438,11.1172 30.9688,11.1563 30.5938,11.1563 C29.625,11.1563 28.862,10.8776 28.3047,10.3203 C27.7474,9.76302 27.4688,9.00521 27.4688,8.04688 C27.4688,7.06771 27.7344,6.28906 28.2656,5.71094 C28.7969,5.13281 29.5156,4.84375 30.4219,4.84375 C31.224,4.84375 31.862,5.10417 32.3359,5.625 C32.8099,6.14583 33.0469,6.85417 33.0469,7.75 M32.0469,7.45313 C32.0469,6.91146 31.8984,6.47917 31.6016,6.15625 C31.3047,5.83333 30.9115,5.67188 30.4219,5.67188 C29.8698,5.67188 29.4297,5.82813 29.1016,6.14063 C28.7734,6.45313 28.5833,6.89063 28.5313,7.45313 L32.0469,7.45313 M38.5,5.15625 L38.5,6.09375 C38.2188,5.94792 37.9271,5.84115 37.625,5.77344 C37.3229,5.70573 37.0104,5.67188 36.6875,5.67188 C36.1979,5.67188 35.8307,5.7474 35.5859,5.89844 C35.3411,6.04948 35.2188,6.27083 35.2188,6.5625 C35.2188,6.79167 35.3073,6.97135 35.4844,7.10156 C35.6615,7.23177 36.0156,7.35938 36.5469,7.48438 L36.875,7.5625 C37.5833,7.70833 38.0833,7.91927 38.375,8.19531 C38.6667,8.47135 38.8125,8.85417 38.8125,9.34375 C38.8125,9.89583 38.5938,10.3359 38.1563,10.6641 C37.7188,10.9922 37.1094,11.1563 36.3281,11.1563 C36.0052,11.1563 35.6693,11.125 35.3203,11.0625 C34.9714,11 34.6042,10.9063 34.2188,10.7813 L34.2188,9.76563 C34.5833,9.95313 34.9427,10.0938 35.2969,10.1875 C35.651,10.2813 36.0052,10.3281 36.3594,10.3281 C36.8177,10.3281 37.1719,10.2474 37.4219,10.0859 C37.6719,9.92448 37.7969,9.70313 37.7969,9.42188 C37.7969,9.15104 37.7083,8.94271 37.5313,8.79688 C37.3542,8.65104 36.9583,8.51563 36.3438,8.39063 L36,8.29688 C35.3854,8.17188 34.9427,7.97656 34.6719,7.71094 C34.401,7.44531 34.2656,7.07813 34.2656,6.60938 C34.2656,6.04688 34.4661,5.61198 34.8672,5.30469 C35.2682,4.9974 35.8385,4.84375 36.5781,4.84375 C36.9427,4.84375 37.2865,4.86979 37.6094,4.92188 C37.9323,4.97396 38.2292,5.05208 38.5,5.15625 M40.375,4.98438 L41.375,4.98438 L41.375,11 L40.375,11 L40.375,4.98438 M40.375,2.64063 L41.375,2.64063 L41.375,3.89063 L40.375,3.89063 L40.375,2.64063 M48.1094,6.14063 C48.3594,5.69271 48.6563,5.36458 49,5.15625 C49.3438,4.94792 49.75,4.84375 50.2188,4.84375 C50.8438,4.84375 51.3255,5.0625 51.6641,5.5 C52.0026,5.9375 52.1719,6.5625 52.1719,7.375 L52.1719,11 L51.1719,11 L51.1719,7.40625 C51.1719,6.82292 51.0703,6.39323 50.8672,6.11719 C50.6641,5.84115 50.3542,5.70313 49.9375,5.70313 C49.4271,5.70313 49.0234,5.8724 48.7266,6.21094 C48.4297,6.54948 48.2813,7.01042 48.2813,7.59375 L48.2813,11 L47.2813,11 L47.2813,7.40625 C47.2813,6.82292 47.1797,6.39323 46.9766,6.11719 C46.7734,5.84115 46.4583,5.70313 46.0313,5.70313 C45.5313,5.70313 45.1328,5.8724 44.8359,6.21094 C44.5391,6.54948 44.3906,7.01042 44.3906,7.59375 L44.3906,11 L43.3906,11 L43.3906,4.98438 L44.3906,4.98438 L44.3906,5.92188 C44.6094,5.54688 44.8776,5.27344 45.1953,5.10156 C45.513,4.92969 45.8854,4.84375 46.3125,4.84375 C46.75,4.84375 47.1224,4.95313 47.4297,5.17188 C47.737,5.39063 47.9635,5.71354 48.1094,6.14063 M55.2031,10.0938 L58.9844,10.0938 L58.9844,11 L53.9063,11 L53.9063,10.0938 C54.3125,9.66667 54.8724,9.09375 55.5859,8.375 C56.2995,7.65625 56.7448,7.19271 56.9219,6.98438 C57.2656,6.58854 57.5078,6.25521 57.6484,5.98438 C57.7891,5.71354 57.8594,5.44792 57.8594,5.1875 C57.8594,4.76042 57.7109,4.41406 57.4141,4.14844 C57.1172,3.88281 56.724,3.75 56.2344,3.75 C55.901,3.75 55.5443,3.8099 55.1641,3.92969 C54.7839,4.04948 54.3802,4.22917 53.9531,4.46875 L53.9531,3.375 C54.3906,3.19792 54.7995,3.0625 55.1797,2.96875 C55.5599,2.875 55.9063,2.82813 56.2188,2.82813 C57.0521,2.82813 57.7161,3.03646 58.2109,3.45313 C58.7057,3.86979 58.9531,4.42708 58.9531,5.125 C58.9531,5.45833 58.8906,5.77083 58.7656,6.0625 C58.6406,6.35417 58.4167,6.70313 58.0938,7.10938 C58,7.21354 57.7135,7.51302 57.2344,8.00781 C56.7552,8.5026 56.0781,9.19792 55.2031,10.0938 M62.875,2.98438 L63.7813,2.98438 L60.9844,12.0156 L60.0781,12.0156 L62.875,2.98438 M68.6563,5.15625 L68.6563,6.09375 C68.375,5.94792 68.0833,5.84115 67.7813,5.77344 C67.4792,5.70573 67.1667,5.67188 66.8438,5.67188 C66.3542,5.67188 65.987,5.7474 65.7422,5.89844 C65.4974,6.04948 65.375,6.27083 65.375,6.5625 C65.375,6.79167 65.4635,6.97135 65.6406,7.10156 C65.8177,7.23177 66.1719,7.35938 66.7031,7.48438 L67.0313,7.5625 C67.7396,7.70833 68.2396,7.91927 68.5313,8.19531 C68.8229,8.47135 68.9688,8.85417 68.9688,9.34375 C68.9688,9.89583 68.75,10.3359 68.3125,10.6641 C67.875,10.9922 67.2656,11.1563 66.4844,11.1563 C66.1615,11.1563 65.8255,11.125 65.4766,11.0625 C65.1276,11 64.7604,10.9063 64.375,10.7813 L64.375,9.76563 C64.7396,9.95313 65.099,10.0938 65.4531,10.1875 C65.8073,10.2813 66.1615,10.3281 66.5156,10.3281 C66.974,10.3281 67.3281,10.2474 67.5781,10.0859 C67.8281,9.92448 67.9531,9.70313 67.9531,9.42188 C67.9531,9.15104 67.8646,8.94271 67.6875,8.79688 C67.5104,8.65104 67.1146,8.51563 66.5,8.39063 L66.1563,8.29688 C65.5417,8.17188 65.099,7.97656 64.8281,7.71094 C64.5573,7.44531 64.4219,7.07813 64.4219,6.60938 C64.4219,6.04688 64.6224,5.61198 65.0234,5.30469 C65.4245,4.9974 65.9948,4.84375 66.7344,4.84375 C67.099,4.84375 67.4427,4.86979 67.7656,4.92188 C68.0885,4.97396 68.3854,5.05208 68.6563,5.15625 M70.5313,4.98438 L71.5313,4.98438 L71.5313,11 L70.5313,11 L70.5313,4.98438 M70.5313,2.64063 L71.5313,2.64063 L71.5313,3.89063 L70.5313,3.89063 L70.5313,2.64063 M78.2656,6.14063 C78.5156,5.69271 78.8125,5.36458 79.1563,5.15625 C79.5,4.94792 79.9063,4.84375 80.375,4.84375 C81,4.84375 81.4818,5.0625 81.8203,5.5 C82.1589,5.9375 82.3281,6.5625 82.3281,7.375 L82.3281,11 L81.3281,11 L81.3281,7.40625 C81.3281,6.82292 81.2266,6.39323 81.0234,6.11719 C80.8203,5.84115 80.5104,5.70313 80.0938,5.70313 C79.5833,5.70313 79.1797,5.8724 78.8828,6.21094 C78.5859,6.54948 78.4375,7.01042 78.4375,7.59375 L78.4375,11 L77.4375,11 L77.4375,7.40625 C77.4375,6.82292 77.3359,6.39323 77.1328,6.11719 C76.9297,5.84115 76.6146,5.70313 76.1875,5.70313 C75.6875,5.70313 75.2891,5.8724 74.9922,6.21094 C74.6953,6.54948 74.5469,7.01042 74.5469,7.59375 L74.5469,11 L73.5469,11 L73.5469,4.98438 L74.5469,4.98438 L74.5469,5.92188 C74.7656,5.54688 75.0339,5.27344 75.3516,5.10156 C75.6693,4.92969 76.0417,4.84375 76.4688,4.84375 C76.9063,4.84375 77.2786,4.95313 77.5859,5.17188 C77.8932,5.39063 78.1198,5.71354 78.2656,6.14063 "/>
</g>

<g fill="none" stroke="#000000" stroke-opacity="1" stroke-width="1" stroke-linecap="square" stroke-linejoin="bevel" transform="matrix(1.99983,0,0,1.99983,1940.98,21.9982)"
font-family="sans" font-size="11" font-weight="100" font-style="normal" 
>
</g>

<g fill="none" stroke="#000000" stroke-opacity="1" stroke-width="1" stroke-linecap="square" stroke-linejoin="bevel" transform="matrix(1.99983,0,0,1.99983,1940.98,21.9982)"
font-family="Ubuntu" font-size="11" font-weight="400" font-style="normal" 
>
</g>

<g fill="none" stroke="#000000" stroke-opacity="1" stroke-width="1" stroke-linecap="square" stroke-linejoin="bevel" transform="matrix(1.99983,0,0,1.99983,-0.00319973,71.994)"
font-family="Ubuntu" font-size="11" font-weight="400" font-style="normal" 
>
</g>

<g fill="none" stroke="#000000" stroke-opacity="1" stroke-width="1" stroke-linecap="square" stroke-linejoin="bevel" transform="matrix(1.99983,0,0,1.99983,-0.00319973,71.994)"
font-family="Ubuntu" font-size="11" font-weight="400" font-style="normal" 
>
</g>

<g fill="none" stroke="#000000" stroke-opacity="1" stroke-width="1" stroke-linecap="square" stroke-linejoin="bevel" transform="matrix(1.99983,0,0,1.99983,-0.00319973,71.994)"
font-family="Ubuntu" font-size="11" font-weight="400" font-style="normal" 
>
</g>

<g fill="none" stroke="#000000" stroke-opacity="1" stroke-width="1" stroke-linecap="square" stroke-linejoin="round" transform="matrix(1.99983,0,0,1.99983,-0.00319973,71.994)"
font-family="Ubuntu" font-size="11" font-weight="400" font-style="normal" 
>
<rect x="404.29" y="-35.5" width="186.999" height="35"/>
</g>

<g fill="none" stroke="#000000" stroke-opacity="1" stroke-width="1" stroke-linecap="square" stroke-linejoin="bevel" transform="matrix(1.99983,0,0,1.99983,-0.00319973,71.994)"
font-family="Ubuntu" font-size="11" font-weight="400" font-style="normal" 
>
</g>

<g fill="none" stroke="#000000" stroke-opacity="1" stroke-width="1" stroke-linecap="square" stroke-linejoin="bevel" transform="matrix(1.99983,0,0,1.99983,864.942,21.9982)"
font-family="Ubuntu" font-size="11" font-weight="400" font-style="normal" 
>
</g>

<g fill="none" stroke="#000000" stroke-opacity="1" stroke-width="1" stroke-linecap="square" stroke-linejoin="bevel" transform="matrix(1.99983,0,0,1.99983,864.942,21.9982)"
font-family="sans" font-size="11" font-weight="100" font-style="normal" 
>
</g>

<g fill="#000000" fill-opacity="1" stroke="#000000" stroke-opacity="1" stroke-width="1" stroke-linecap="square" stroke-linejoin="round" transform="matrix(1.99983,0,0,1.99983,864.942,21.9982)"
font-family="sans" font-size="11" font-weight="100" font-style="normal" 
>
<path vector-effect="none" fill-rule="nonzero" d="M2.79688,2.98438 L3.70313,2.98438 L0.90625,12.0156 L0,12.0156 L2.79688,2.98438 M5.71875,3.28125 L5.71875,4.98438 L7.75,4.98438 L7.75,5.75 L5.71875,5.75 L5.71875,9.01563 C5.71875,9.50521 5.78646,9.82031 5.92188,9.96094 C6.05729,10.1016 6.32813,10.1719 6.73438,10.1719 L7.75,10.1719 L7.75,11 L6.73438,11 C5.97396,11 5.44792,10.8568 5.15625,10.5703 C4.86458,10.2839 4.71875,9.76563 4.71875,9.01563 L4.71875,5.75 L4,5.75 L4,4.98438 L4.71875,4.98438 L4.71875,3.28125 L5.71875,3.28125 M8.95313,8.625 L8.95313,4.98438 L9.9375,4.98438 L9.9375,8.59375 C9.9375,9.15625 10.0495,9.58073 10.2734,9.86719 C10.4974,10.1536 10.8281,10.2969 11.2656,10.2969 C11.8073,10.2969 12.2318,10.1276 12.5391,9.78906 C12.8464,9.45052 13,8.98438 13,8.39063 L13,4.98438 L13.9844,4.98438 L13.9844,11 L13,11 L13,10.0781 C12.7604,10.4427 12.4818,10.7135 12.1641,10.8906 C11.8464,11.0677 11.4792,11.1563 11.0625,11.1563 C10.375,11.1563 9.85156,10.9401 9.49219,10.5078 C9.13281,10.0755 8.95313,9.44792 8.95313,8.625 M19.5,5.90625 C19.3958,5.84375 19.2786,5.79688 19.1484,5.76563 C19.0182,5.73438 18.875,5.71875 18.7188,5.71875 C18.1563,5.71875 17.7266,5.90104 17.4297,6.26563 C17.1328,6.63021 16.9844,7.15104 16.9844,7.82813 L16.9844,11 L15.9844,11 L15.9844,4.98438 L16.9844,4.98438 L16.9844,5.92188 C17.1823,5.55729 17.4479,5.28646 17.7813,5.10938 C18.1146,4.93229 18.5208,4.84375 19,4.84375 C19.0729,4.84375 19.1484,4.84635 19.2266,4.85156 C19.3047,4.85677 19.3958,4.86979 19.5,4.89063 L19.5,5.90625 M21.5156,3.28125 L21.5156,4.98438 L23.5469,4.98438 L23.5469,5.75 L21.5156,5.75 L21.5156,9.01563 C21.5156,9.50521 21.5833,9.82031 21.7188,9.96094 C21.8542,10.1016 22.125,10.1719 22.5313,10.1719 L23.5469,10.1719 L23.5469,11 L22.5313,11 C21.7708,11 21.2448,10.8568 20.9531,10.5703 C20.6615,10.2839 20.5156,9.76563 20.5156,9.01563 L20.5156,5.75 L19.7969,5.75 L19.7969,4.98438 L20.5156,4.98438 L20.5156,3.28125 L21.5156,3.28125 M24.8438,2.64063 L25.8438,2.64063 L25.8438,11 L24.8438,11 L24.8438,2.64063 M33.0469,7.75 L33.0469,8.23438 L28.5,8.23438 C28.5417,8.91146 28.7448,9.42708 29.1094,9.78125 C29.474,10.1354 29.9844,10.3125 30.6406,10.3125 C31.026,10.3125 31.3958,10.2656 31.75,10.1719 C32.1042,10.0781 32.4583,9.94271 32.8125,9.76563 L32.8125,10.6875 C32.4583,10.8438 32.0938,10.9609 31.7188,11.0391 C31.3438,11.1172 30.9688,11.1563 30.5938,11.1563 C29.625,11.1563 28.862,10.8776 28.3047,10.3203 C27.7474,9.76302 27.4688,9.00521 27.4688,8.04688 C27.4688,7.06771 27.7344,6.28906 28.2656,5.71094 C28.7969,5.13281 29.5156,4.84375 30.4219,4.84375 C31.224,4.84375 31.862,5.10417 32.3359,5.625 C32.8099,6.14583 33.0469,6.85417 33.0469,7.75 M32.0469,7.45313 C32.0469,6.91146 31.8984,6.47917 31.6016,6.15625 C31.3047,5.83333 30.9115,5.67188 30.4219,5.67188 C29.8698,5.67188 29.4297,5.82813 29.1016,6.14063 C28.7734,6.45313 28.5833,6.89063 28.5313,7.45313 L32.0469,7.45313 M38.5,5.15625 L38.5,6.09375 C38.2188,5.94792 37.9271,5.84115 37.625,5.77344 C37.3229,5.70573 37.0104,5.67188 36.6875,5.67188 C36.1979,5.67188 35.8307,5.7474 35.5859,5.89844 C35.3411,6.04948 35.2188,6.27083 35.2188,6.5625 C35.2188,6.79167 35.3073,6.97135 35.4844,7.10156 C35.6615,7.23177 36.0156,7.35938 36.5469,7.48438 L36.875,7.5625 C37.5833,7.70833 38.0833,7.91927 38.375,8.19531 C38.6667,8.47135 38.8125,8.85417 38.8125,9.34375 C38.8125,9.89583 38.5938,10.3359 38.1563,10.6641 C37.7188,10.9922 37.1094,11.1563 36.3281,11.1563 C36.0052,11.1563 35.6693,11.125 35.3203,11.0625 C34.9714,11 34.6042,10.9063 34.2188,10.7813 L34.2188,9.76563 C34.5833,9.95313 34.9427,10.0938 35.2969,10.1875 C35.651,10.2813 36.0052,10.3281 36.3594,10.3281 C36.8177,10.3281 37.1719,10.2474 37.4219,10.0859 C37.6719,9.92448 37.7969,9.70313 37.7969,9.42188 C37.7969,9.15104 37.7083,8.94271 37.5313,8.79688 C37.3542,8.65104 36.9583,8.51563 36.3438,8.39063 L36,8.29688 C35.3854,8.17188 34.9427,7.97656 34.6719,7.71094 C34.401,7.44531 34.2656,7.07813 34.2656,6.60938 C34.2656,6.04688 34.4661,5.61198 34.8672,5.30469 C35.2682,4.9974 35.8385,4.84375 36.5781,4.84375 C36.9427,4.84375 37.2865,4.86979 37.6094,4.92188 C37.9323,4.97396 38.2292,5.05208 38.5,5.15625 M40.375,4.98438 L41.375,4.98438 L41.375,11 L40.375,11 L40.375,4.98438 M40.375,2.64063 L41.375,2.64063 L41.375,3.89063 L40.375,3.89063 L40.375,2.64063 M48.1094,6.14063 C48.3594,5.69271 48.6563,5.36458 49,5.15625 C49.3438,4.94792 49.75,4.84375 50.2188,4.84375 C50.8438,4.84375 51.3255,5.0625 51.6641,5.5 C52.0026,5.9375 52.1719,6.5625 52.1719,7.375 L52.1719,11 L51.1719,11 L51.1719,7.40625 C51.1719,6.82292 51.0703,6.39323 50.8672,6.11719 C50.6641,5.84115 50.3542,5.70313 49.9375,5.70313 C49.4271,5.70313 49.0234,5.8724 48.7266,6.21094 C48.4297,6.54948 48.2813,7.01042 48.2813,7.59375 L48.2813,11 L47.2813,11 L47.2813,7.40625 C47.2813,6.82292 47.1797,6.39323 46.9766,6.11719 C46.7734,5.84115 46.4583,5.70313 46.0313,5.70313 C45.5313,5.70313 45.1328,5.8724 44.8359,6.21094 C44.5391,6.54948 44.3906,7.01042 44.3906,7.59375 L44.3906,11 L43.3906,11 L43.3906,4.98438 L44.3906,4.98438 L44.3906,5.92188 C44.6094,5.54688 44.8776,5.27344 45.1953,5.10156 C45.513,4.92969 45.8854,4.84375 46.3125,4.84375 C46.75,4.84375 47.1224,4.95313 47.4297,5.17188 C47.737,5.39063 47.9635,5.71354 48.1094,6.14063 M54.4531,10.0938 L56.2344,10.0938 L56.2344,3.96875 L54.2969,4.35938 L54.2969,3.375 L56.2188,2.98438 L57.3125,2.98438 L57.3125,10.0938 L59.0781,10.0938 L59.0781,11 L54.4531,11 L54.4531,10.0938 M62.875,2.98438 L63.7813,2.98438 L60.9844,12.0156 L60.0781,12.0156 L62.875,2.98438 M65.7969,3.28125 L65.7969,4.98438 L67.8281,4.98438 L67.8281,5.75 L65.7969,5.75 L65.7969,9.01563 C65.7969,9.50521 65.8646,9.82031 66,9.96094 C66.1354,10.1016 66.4063,10.1719 66.8125,10.1719 L67.8281,10.1719 L67.8281,11 L66.8125,11 C66.0521,11 65.526,10.8568 65.2344,10.5703 C64.9427,10.2839 64.7969,9.76563 64.7969,9.01563 L64.7969,5.75 L64.0781,5.75 L64.0781,4.98438 L64.7969,4.98438 L64.7969,3.28125 L65.7969,3.28125 M69.0313,8.625 L69.0313,4.98438 L70.0156,4.98438 L70.0156,8.59375 C70.0156,9.15625 70.1276,9.58073 70.3516,9.86719 C70.5755,10.1536 70.9063,10.2969 71.3438,10.2969 C71.8854,10.2969 72.3099,10.1276 72.6172,9.78906 C72.9245,9.45052 73.0781,8.98438 73.0781,8.39063 L73.0781,4.98438 L74.0625,4.98438 L74.0625,11 L73.0781,11 L73.0781,10.0781 C72.8385,10.4427 72.5599,10.7135 72.2422,10.8906 C71.9245,11.0677 71.5573,11.1563 71.1406,11.1563 C70.4531,11.1563 69.9297,10.9401 69.5703,10.5078 C69.2109,10.0755 69.0313,9.44792 69.0313,8.625 M79.5781,5.90625 C79.474,5.84375 79.3568,5.79688 79.2266,5.76563 C79.0964,5.73438 78.9531,5.71875 78.7969,5.71875 C78.2344,5.71875 77.8047,5.90104 77.5078,6.26563 C77.2109,6.63021 77.0625,7.15104 77.0625,7.82813 L77.0625,11 L76.0625,11 L76.0625,4.98438 L77.0625,4.98438 L77.0625,5.92188 C77.2604,5.55729 77.526,5.28646 77.8594,5.10938 C78.1927,4.93229 78.599,4.84375 79.0781,4.84375 C79.151,4.84375 79.2266,4.84635 79.3047,4.85156 C79.3828,4.85677 79.474,4.86979 79.5781,4.89063 L79.5781,5.90625 M81.5938,3.28125 L81.5938,4.98438 L83.625,4.98438 L83.625,5.75 L81.5938,5.75 L81.5938,9.01563 C81.5938,9.50521 81.6615,9.82031 81.7969,9.96094 C81.9323,10.1016 82.2031,10.1719 82.6094,10.1719 L83.625,10.1719 L83.625,11 L82.6094,11 C81.849,11 81.3229,10.8568 81.0313,10.5703 C80.7396,10.2839 80.5938,9.76563 80.5938,9.01563 L80.5938,5.75 L79.875,5.75 L79.875,4.98438 L80.5938,4.98438 L80.5938,3.28125 L81.5938,3.28125 M84.9219,2.64063 L85.9219,2.64063 L85.9219,11 L84.9219,11 L84.9219,2.64063 M93.125,7.75 L93.125,8.23438 L88.5781,8.23438 C88.6198,8.91146 88.8229,9.42708 89.1875,9.78125 C89.5521,10.1354 90.0625,10.3125 90.7188,10.3125 C91.1042,10.3125 91.474,10.2656 91.8281,10.1719 C92.1823,10.0781 92.5365,9.94271 92.8906,9.76563 L92.8906,10.6875 C92.5365,10.8438 92.1719,10.9609 91.7969,11.0391 C91.4219,11.1172 91.0469,11.1563 90.6719,11.1563 C89.7031,11.1563 88.9401,10.8776 88.3828,10.3203 C87.8255,9.76302 87.5469,9.00521 87.5469,8.04688 C87.5469,7.06771 87.8125,6.28906 88.3438,5.71094 C88.875,5.13281 89.5938,4.84375 90.5,4.84375 C91.3021,4.84375 91.9401,5.10417 92.4141,5.625 C92.888,6.14583 93.125,6.85417 93.125,7.75 M92.125,7.45313 C92.125,6.91146 91.9766,6.47917 91.6797,6.15625 C91.3828,5.83333 90.9896,5.67188 90.5,5.67188 C89.9479,5.67188 89.5078,5.82813 89.1797,6.14063 C88.8516,6.45313 88.6615,6.89063 88.6094,7.45313 L92.125,7.45313 M95.0625,10.0938 L96.8438,10.0938 L96.8438,3.96875 L94.9063,4.35938 L94.9063,3.375 L96.8281,2.98438 L97.9219,2.98438 L97.9219,10.0938 L99.6875,10.0938 L99.6875,11 L95.0625,11 L95.0625,10.0938 M103.484,2.98438 L104.391,2.98438 L101.594,12.0156 L100.688,12.0156 L103.484,2.98438 M106.391,10.0938 L106.391,13.2813 L105.391,13.2813 L105.391,4.98438 L106.391,4.98438 L106.391,5.89063 C106.589,5.53646 106.846,5.27344 107.164,5.10156 C107.482,4.92969 107.865,4.84375 108.313,4.84375 C109.042,4.84375 109.633,5.13281 110.086,5.71094 C110.539,6.28906 110.766,7.05208 110.766,8 C110.766,8.94792 110.539,9.71094 110.086,10.2891 C109.633,10.8672 109.042,11.1563 108.313,11.1563 C107.865,11.1563 107.482,11.0703 107.164,10.8984 C106.846,10.7266 106.589,10.4583 106.391,10.0938 M109.75,8 C109.75,7.27083 109.599,6.70052 109.297,6.28906 C108.995,5.8776 108.583,5.67188 108.063,5.67188 C107.542,5.67188 107.133,5.8776 106.836,6.28906 C106.539,6.70052 106.391,7.27083 106.391,8 C106.391,8.72917 106.539,9.29948 106.836,9.71094 C107.133,10.1224 107.542,10.3281 108.063,10.3281 C108.583,10.3281 108.995,10.1224 109.297,9.71094 C109.599,9.29948 109.75,8.72917 109.75,8 M114.734,5.67188 C114.203,5.67188 113.784,5.88021 113.477,6.29688 C113.169,6.71354 113.016,7.28125 113.016,8 C113.016,8.71875 113.167,9.28385 113.469,9.69531 C113.771,10.1068 114.193,10.3125 114.734,10.3125 C115.255,10.3125 115.669,10.1068 115.977,9.69531 C116.284,9.28385 116.438,8.71875 116.438,8 C116.438,7.28125 116.284,6.71354 115.977,6.29688 C115.669,5.88021 115.255,5.67188 114.734,5.67188 M114.734,4.84375 C115.589,4.84375 116.26,5.1224 116.75,5.67969 C117.24,6.23698 117.484,7.01042 117.484,8 C117.484,8.97917 117.24,9.75 116.75,10.3125 C116.26,10.875 115.589,11.1563 114.734,11.1563 C113.87,11.1563 113.193,10.875 112.703,10.3125 C112.214,9.75 111.969,8.97917 111.969,8 C111.969,7.01042 112.214,6.23698 112.703,5.67969 C113.193,5.1224 113.87,4.84375 114.734,4.84375 M122.953,5.15625 L122.953,6.09375 C122.672,5.94792 122.38,5.84115 122.078,5.77344 C121.776,5.70573 121.464,5.67188 121.141,5.67188 C120.651,5.67188 120.284,5.7474 120.039,5.89844 C119.794,6.04948 119.672,6.27083 119.672,6.5625 C119.672,6.79167 119.76,6.97135 119.938,7.10156 C120.115,7.23177 120.469,7.35938 121,7.48438 L121.328,7.5625 C122.036,7.70833 122.536,7.91927 122.828,8.19531 C123.12,8.47135 123.266,8.85417 123.266,9.34375 C123.266,9.89583 123.047,10.3359 122.609,10.6641 C122.172,10.9922 121.563,11.1563 120.781,11.1563 C120.458,11.1563 120.122,11.125 119.773,11.0625 C119.424,11 119.057,10.9063 118.672,10.7813 L118.672,9.76563 C119.036,9.95313 119.396,10.0938 119.75,10.1875 C120.104,10.2813 120.458,10.3281 120.813,10.3281 C121.271,10.3281 121.625,10.2474 121.875,10.0859 C122.125,9.92448 122.25,9.70313 122.25,9.42188 C122.25,9.15104 122.161,8.94271 121.984,8.79688 C121.807,8.65104 121.411,8.51563 120.797,8.39063 L120.453,8.29688 C119.839,8.17188 119.396,7.97656 119.125,7.71094 C118.854,7.44531 118.719,7.07813 118.719,6.60938 C118.719,6.04688 118.919,5.61198 119.32,5.30469 C119.721,4.9974 120.292,4.84375 121.031,4.84375 C121.396,4.84375 121.74,4.86979 122.063,4.92188 C122.385,4.97396 122.682,5.05208 122.953,5.15625 M129.984,7.75 L129.984,8.23438 L125.438,8.23438 C125.479,8.91146 125.682,9.42708 126.047,9.78125 C126.411,10.1354 126.922,10.3125 127.578,10.3125 C127.964,10.3125 128.333,10.2656 128.688,10.1719 C129.042,10.0781 129.396,9.94271 129.75,9.76563 L129.75,10.6875 C129.396,10.8438 129.031,10.9609 128.656,11.0391 C128.281,11.1172 127.906,11.1563 127.531,11.1563 C126.563,11.1563 125.799,10.8776 125.242,10.3203 C124.685,9.76302 124.406,9.00521 124.406,8.04688 C124.406,7.06771 124.672,6.28906 125.203,5.71094 C125.734,5.13281 126.453,4.84375 127.359,4.84375 C128.161,4.84375 128.799,5.10417 129.273,5.625 C129.747,6.14583 129.984,6.85417 129.984,7.75 M128.984,7.45313 C128.984,6.91146 128.836,6.47917 128.539,6.15625 C128.242,5.83333 127.849,5.67188 127.359,5.67188 C126.807,5.67188 126.367,5.82813 126.039,6.14063 C125.711,6.45313 125.521,6.89063 125.469,7.45313 L128.984,7.45313"/>
</g>

<g fill="none" stroke="#000000" stroke-opacity="1" stroke-width="1" stroke-linecap="square" stroke-linejoin="bevel" transform="matrix(1.99983,0,0,1.99983,864.942,21.9982)"
font-family="sans" font-size="11" font-weight="100" font-style="normal" 
>
</g>

<g fill="none" stroke="#000000" stroke-opacity="1" stroke-width="1" stroke-linecap="square" stroke-linejoin="bevel" transform="matrix(1.99983,0,0,1.99983,864.942,21.9982)"
font-family="Ubuntu" font-size="11" font-weight="400" font-style="normal" 
>
</g>

<g fill="none" stroke="#000000" stroke-opacity="1" stroke-width="1" stroke-linecap="square" stroke-linejoin="bevel" transform="matrix(1.99983,0,0,1.99983,-0.00319973,71.994)"
font-family="Ubuntu" font-size="11" font-weight="400" font-style="normal" 
>
</g>

<g fill="none" stroke="#000000" stroke-opacity="1" stroke-width="1" stroke-linecap="square" stroke-linejoin="bevel" transform="matrix(1.99983,0,0,1.99983,-0.00319973,71.994)"
font-family="Ubuntu" font-size="11" font-weight="400" font-style="normal" 
>
</g>

<g fill="none" stroke="#000000" stroke-opacity="1" stroke-width="1" stroke-linecap="square" stroke-linejoin="bevel" transform="matrix(1.99983,0,0,1.99983,-0.00319973,71.994)"
font-family="Ubuntu" font-size="11" font-weight="400" font-style="normal" 
>
</g>

<g fill="none" stroke="#000000" stroke-opacity="1" stroke-width="1" stroke-linecap="square" stroke-linejoin="round" transform="matrix(1.99983,0,0,1.99983,-0.00319973,71.994)"
font-family="Ubuntu" font-size="11" font-weight="400" font-style="normal" 
>
<ellipse cx="648.03" cy="-18" rx="41.746" ry="17.5"/>
</g>

<g fill="none" stroke="#000000" stroke-opacity="1" stroke-width="1" stroke-linecap="square" stroke-linejoin="bevel" transform="matrix(1.99983,0,0,1.99983,-0.00319973,71.994)"
font-family="Ubuntu" font-size="11" font-weight="400" font-style="normal" 
>
</g>

<g fill="none" stroke="#000000" stroke-opacity="1" stroke-width="1" stroke-linecap="square" stroke-linejoin="bevel" transform="matrix(1.99983,0,0,1.99983,1258.7,21.9982)"
font-family="Ubuntu" font-size="11" font-weight="400" font-style="normal" 
>
</g>

<g fill="none" stroke="#000000" stroke-opacity="1" stroke-width="1" stroke-linecap="square" stroke-linejoin="bevel" transform="matrix(1.99983,0,0,1.99983,1258.7,21.9982)"
font-family="sans" font-size="11" font-weight="100" font-style="normal" 
>
</g>

<g fill="#000000" fill-opacity="1" stroke="#000000" stroke-opacity="1" stroke-width="1" stroke-linecap="square" stroke-linejoin="round" transform="matrix(1.99983,0,0,1.99983,1258.7,21.9982)"
font-family="sans" font-size="11" font-weight="100" font-style="normal" 
>
<path vector-effect="none" fill-rule="nonzero" d="M2.79688,2.98438 L3.70313,2.98438 L0.90625,12.0156 L0,12.0156 L2.79688,2.98438 M9.42188,6.14063 C9.67188,5.69271 9.96875,5.36458 10.3125,5.15625 C10.6563,4.94792 11.0625,4.84375 11.5313,4.84375 C12.1563,4.84375 12.638,5.0625 12.9766,5.5 C13.3151,5.9375 13.4844,6.5625 13.4844,7.375 L13.4844,11 L12.4844,11 L12.4844,7.40625 C12.4844,6.82292 12.3828,6.39323 12.1797,6.11719 C11.9766,5.84115 11.6667,5.70313 11.25,5.70313 C10.7396,5.70313 10.3359,5.8724 10.0391,6.21094 C9.74219,6.54948 9.59375,7.01042 9.59375,7.59375 L9.59375,11 L8.59375,11 L8.59375,7.40625 C8.59375,6.82292 8.49219,6.39323 8.28906,6.11719 C8.08594,5.84115 7.77083,5.70313 7.34375,5.70313 C6.84375,5.70313 6.44531,5.8724 6.14844,6.21094 C5.85156,6.54948 5.70313,7.01042 5.70313,7.59375 L5.70313,11 L4.70313,11 L4.70313,4.98438 L5.70313,4.98438 L5.70313,5.92188 C5.92188,5.54688 6.1901,5.27344 6.50781,5.10156 C6.82552,4.92969 7.19792,4.84375 7.625,4.84375 C8.0625,4.84375 8.4349,4.95313 8.74219,5.17188 C9.04948,5.39063 9.27604,5.71354 9.42188,6.14063 M15.4375,4.98438 L16.4375,4.98438 L16.4375,11 L15.4375,11 L15.4375,4.98438 M15.4375,2.64063 L16.4375,2.64063 L16.4375,3.89063 L15.4375,3.89063 L15.4375,2.64063 M23.1719,6.14063 C23.4219,5.69271 23.7188,5.36458 24.0625,5.15625 C24.4063,4.94792 24.8125,4.84375 25.2813,4.84375 C25.9063,4.84375 26.388,5.0625 26.7266,5.5 C27.0651,5.9375 27.2344,6.5625 27.2344,7.375 L27.2344,11 L26.2344,11 L26.2344,7.40625 C26.2344,6.82292 26.1328,6.39323 25.9297,6.11719 C25.7266,5.84115 25.4167,5.70313 25,5.70313 C24.4896,5.70313 24.0859,5.8724 23.7891,6.21094 C23.4922,6.54948 23.3438,7.01042 23.3438,7.59375 L23.3438,11 L22.3438,11 L22.3438,7.40625 C22.3438,6.82292 22.2422,6.39323 22.0391,6.11719 C21.8359,5.84115 21.5208,5.70313 21.0938,5.70313 C20.5938,5.70313 20.1953,5.8724 19.8984,6.21094 C19.6016,6.54948 19.4531,7.01042 19.4531,7.59375 L19.4531,11 L18.4531,11 L18.4531,4.98438 L19.4531,4.98438 L19.4531,5.92188 C19.6719,5.54688 19.9401,5.27344 20.2578,5.10156 C20.5755,4.92969 20.9479,4.84375 21.375,4.84375 C21.8125,4.84375 22.1849,4.95313 22.4922,5.17188 C22.7995,5.39063 23.026,5.71354 23.1719,6.14063 M29.1875,4.98438 L30.1875,4.98438 L30.1875,11 L29.1875,11 L29.1875,4.98438 M29.1875,2.64063 L30.1875,2.64063 L30.1875,3.89063 L29.1875,3.89063 L29.1875,2.64063 M36.5625,5.21875 L36.5625,6.14063 C36.2917,5.98438 36.0156,5.86719 35.7344,5.78906 C35.4531,5.71094 35.1667,5.67188 34.875,5.67188 C34.2396,5.67188 33.7448,5.875 33.3906,6.28125 C33.0365,6.6875 32.8594,7.26042 32.8594,8 C32.8594,8.72917 33.0365,9.29688 33.3906,9.70313 C33.7448,10.1094 34.2396,10.3125 34.875,10.3125 C35.1667,10.3125 35.4531,10.276 35.7344,10.2031 C36.0156,10.1302 36.2917,10.0156 36.5625,9.85938 L36.5625,10.7656 C36.2917,10.901 36.0078,11 35.7109,11.0625 C35.4141,11.125 35.099,11.1563 34.7656,11.1563 C33.8594,11.1563 33.1406,10.8724 32.6094,10.3047 C32.0781,9.73698 31.8125,8.96875 31.8125,8 C31.8125,7.02083 32.0807,6.25 32.6172,5.6875 C33.1536,5.125 33.8906,4.84375 34.8281,4.84375 C35.1406,4.84375 35.4401,4.875 35.7266,4.9375 C36.013,5 36.2917,5.09375 36.5625,5.21875 "/>
</g>

<g fill="none" stroke="#000000" stroke-opacity="1" stroke-width="1" stroke-linecap="square" stroke-linejoin="bevel" transform="matrix(1.99983,0,0,1.99983,1258.7,21.9982)"
font-family="sans" font-size="11" font-weight="100" font-style="normal" 
>
</g>

<g fill="none" stroke="#000000" stroke-opacity="1" stroke-width="1" stroke-linecap="square" stroke-linejoin="bevel" transform="matrix(1.99983,0,0,1.99983,1258.7,21.9982)"
font-family="Ubuntu" font-size="11" font-weight="400" font-style="normal" 
>
</g>

<g fill="none" stroke="#000000" stroke-opacity="1" stroke-width="1" stroke-linecap="square" stroke-linejoin="bevel" transform="matrix(1.99983,0,0,1.99983,-0.00319973,71.994)"
font-family="Ubuntu" font-size="11" font-weight="400" font-style="normal" 
>
</g>

<g fill="none" stroke="#000000" stroke-opacity="1" stroke-width="1" stroke-linecap="square" stroke-linejoin="bevel" transform="matrix(1.99983,0,0,1.99983,-0.00319973,71.994)"
font-family="Ubuntu" font-size="11" font-weight="400" font-style="normal" 
>
</g>

<g fill="none" stroke="#000000" stroke-opacity="1" stroke-width="1" stroke-linecap="square" stroke-linejoin="bevel" transform="matrix(1.99983,0,0,1.99983,-0.00319973,71.994)"
font-family="Ubuntu" font-size="11" font-weight="400" font-style="normal" 
>
</g>

<g fill="none" stroke="#000000" stroke-opacity="1" stroke-width="1" stroke-linecap="square" stroke-linejoin="round" transform="matrix(1.99983,0,0,1.99983,-0.00319973,71.994)"
font-family="Ubuntu" font-size="11" font-weight="400" font-style="normal" 
>
<rect x="0.5016" y="-35.5" width="210.997" height="35"/>
</g>

<g fill="none" stroke="#000000" stroke-opacity="1" stroke-width="1" stroke-linecap="square" stroke-linejoin="bevel" transform="matrix(1.99983,0,0,1.99983,-0.00319973,71.994)"
font-family="Ubuntu" font-size="11" font-weight="400" font-style="normal" 
>
</g>

<g fill="none" stroke="#000000" stroke-opacity="1" stroke-width="1" stroke-linecap="square" stroke-linejoin="bevel" transform="matrix(1.99983,0,0,1.99983,62.0698,21.9982)"
font-family="Ubuntu" font-size="11" font-weight="400" font-style="normal" 
>
</g>

<g fill="none" stroke="#000000" stroke-opacity="1" stroke-width="1" stroke-linecap="square" stroke-linejoin="bevel" transform="matrix(1.99983,0,0,1.99983,62.0698,21.9982)"
font-family="sans" font-size="11" font-weight="100" font-style="normal" 
>
</g>

<g fill="#000000" fill-opacity="1" stroke="#000000" stroke-opacity="1" stroke-width="1" stroke-linecap="square" stroke-linejoin="round" transform="matrix(1.99983,0,0,1.99983,62.0698,21.9982)"
font-family="sans" font-size="11" font-weight="100" font-style="normal" 
>
<path vector-effect="none" fill-rule="nonzero" d="M2.79688,2.98438 L3.70313,2.98438 L0.90625,12.0156 L0,12.0156 L2.79688,2.98438 M5.71875,3.28125 L5.71875,4.98438 L7.75,4.98438 L7.75,5.75 L5.71875,5.75 L5.71875,9.01563 C5.71875,9.50521 5.78646,9.82031 5.92188,9.96094 C6.05729,10.1016 6.32813,10.1719 6.73438,10.1719 L7.75,10.1719 L7.75,11 L6.73438,11 C5.97396,11 5.44792,10.8568 5.15625,10.5703 C4.86458,10.2839 4.71875,9.76563 4.71875,9.01563 L4.71875,5.75 L4,5.75 L4,4.98438 L4.71875,4.98438 L4.71875,3.28125 L5.71875,3.28125 M8.95313,8.625 L8.95313,4.98438 L9.9375,4.98438 L9.9375,8.59375 C9.9375,9.15625 10.0495,9.58073 10.2734,9.86719 C10.4974,10.1536 10.8281,10.2969 11.2656,10.2969 C11.8073,10.2969 12.2318,10.1276 12.5391,9.78906 C12.8464,9.45052 13,8.98438 13,8.39063 L13,4.98438 L13.9844,4.98438 L13.9844,11 L13,11 L13,10.0781 C12.7604,10.4427 12.4818,10.7135 12.1641,10.8906 C11.8464,11.0677 11.4792,11.1563 11.0625,11.1563 C10.375,11.1563 9.85156,10.9401 9.49219,10.5078 C9.13281,10.0755 8.95313,9.44792 8.95313,8.625 M19.5,5.90625 C19.3958,5.84375 19.2786,5.79688 19.1484,5.76563 C19.0182,5.73438 18.875,5.71875 18.7188,5.71875 C18.1563,5.71875 17.7266,5.90104 17.4297,6.26563 C17.1328,6.63021 16.9844,7.15104 16.9844,7.82813 L16.9844,11 L15.9844,11 L15.9844,4.98438 L16.9844,4.98438 L16.9844,5.92188 C17.1823,5.55729 17.4479,5.28646 17.7813,5.10938 C18.1146,4.93229 18.5208,4.84375 19,4.84375 C19.0729,4.84375 19.1484,4.84635 19.2266,4.85156 C19.3047,4.85677 19.3958,4.86979 19.5,4.89063 L19.5,5.90625 M21.5156,3.28125 L21.5156,4.98438 L23.5469,4.98438 L23.5469,5.75 L21.5156,5.75 L21.5156,9.01563 C21.5156,9.50521 21.5833,9.82031 21.7188,9.96094 C21.8542,10.1016 22.125,10.1719 22.5313,10.1719 L23.5469,10.1719 L23.5469,11 L22.5313,11 C21.7708,11 21.2448,10.8568 20.9531,10.5703 C20.6615,10.2839 20.5156,9.76563 20.5156,9.01563 L20.5156,5.75 L19.7969,5.75 L19.7969,4.98438 L20.5156,4.98438 L20.5156,3.28125 L21.5156,3.28125 M24.8438,2.64063 L25.8438,2.64063 L25.8438,11 L24.8438,11 L24.8438,2.64063 M33.0469,7.75 L33.0469,8.23438 L28.5,8.23438 C28.5417,8.91146 28.7448,9.42708 29.1094,9.78125 C29.474,10.1354 29.9844,10.3125 30.6406,10.3125 C31.026,10.3125 31.3958,10.2656 31.75,10.1719 C32.1042,10.0781 32.4583,9.94271 32.8125,9.76563 L32.8125,10.6875 C32.4583,10.8438 32.0938,10.9609 31.7188,11.0391 C31.3438,11.1172 30.9688,11.1563 30.5938,11.1563 C29.625,11.1563 28.862,10.8776 28.3047,10.3203 C27.7474,9.76302 27.4688,9.00521 27.4688,8.04688 C27.4688,7.06771 27.7344,6.28906 28.2656,5.71094 C28.7969,5.13281 29.5156,4.84375 30.4219,4.84375 C31.224,4.84375 31.862,5.10417 32.3359,5.625 C32.8099,6.14583 33.0469,6.85417 33.0469,7.75 M32.0469,7.45313 C32.0469,6.91146 31.8984,6.47917 31.6016,6.15625 C31.3047,5.83333 30.9115,5.67188 30.4219,5.67188 C29.8698,5.67188 29.4297,5.82813 29.1016,6.14063 C28.7734,6.45313 28.5833,6.89063 28.5313,7.45313 L32.0469,7.45313 M38.5,5.15625 L38.5,6.09375 C38.2188,5.94792 37.9271,5.84115 37.625,5.77344 C37.3229,5.70573 37.0104,5.67188 36.6875,5.67188 C36.1979,5.67188 35.8307,5.7474 35.5859,5.89844 C35.3411,6.04948 35.2188,6.27083 35.2188,6.5625 C35.2188,6.79167 35.3073,6.97135 35.4844,7.10156 C35.6615,7.23177 36.0156,7.35938 36.5469,7.48438 L36.875,7.5625 C37.5833,7.70833 38.0833,7.91927 38.375,8.19531 C38.6667,8.47135 38.8125,8.85417 38.8125,9.34375 C38.8125,9.89583 38.5938,10.3359 38.1563,10.6641 C37.7188,10.9922 37.1094,11.1563 36.3281,11.1563 C36.0052,11.1563 35.6693,11.125 35.3203,11.0625 C34.9714,11 34.6042,10.9063 34.2188,10.7813 L34.2188,9.76563 C34.5833,9.95313 34.9427,10.0938 35.2969,10.1875 C35.651,10.2813 36.0052,10.3281 36.3594,10.3281 C36.8177,10.3281 37.1719,10.2474 37.4219,10.0859 C37.6719,9.92448 37.7969,9.70313 37.7969,9.42188 C37.7969,9.15104 37.7083,8.94271 37.5313,8.79688 C37.3542,8.65104 36.9583,8.51563 36.3438,8.39063 L36,8.29688 C35.3854,8.17188 34.9427,7.97656 34.6719,7.71094 C34.401,7.44531 34.2656,7.07813 34.2656,6.60938 C34.2656,6.04688 34.4661,5.61198 34.8672,5.30469 C35.2682,4.9974 35.8385,4.84375 36.5781,4.84375 C36.9427,4.84375 37.2865,4.86979 37.6094,4.92188 C37.9323,4.97396 38.2292,5.05208 38.5,5.15625 M40.375,4.98438 L41.375,4.98438 L41.375,11 L40.375,11 L40.375,4.98438 M40.375,2.64063 L41.375,2.64063 L41.375,3.89063 L40.375,3.89063 L40.375,2.64063 M48.1094,6.14063 C48.3594,5.69271 48.6563,5.36458 49,5.15625 C49.3438,4.94792 49.75,4.84375 50.2188,4.84375 C50.8438,4.84375 51.3255,5.0625 51.6641,5.5 C52.0026,5.9375 52.1719,6.5625 52.1719,7.375 L52.1719,11 L51.1719,11 L51.1719,7.40625 C51.1719,6.82292 51.0703,6.39323 50.8672,6.11719 C50.6641,5.84115 50.3542,5.70313 49.9375,5.70313 C49.4271,5.70313 49.0234,5.8724 48.7266,6.21094 C48.4297,6.54948 48.2813,7.01042 48.2813,7.59375 L48.2813,11 L47.2813,11 L47.2813,7.40625 C47.2813,6.82292 47.1797,6.39323 46.9766,6.11719 C46.7734,5.84115 46.4583,5.70313 46.0313,5.70313 C45.5313,5.70313 45.1328,5.8724 44.8359,6.21094 C44.5391,6.54948 44.3906,7.01042 44.3906,7.59375 L44.3906,11 L43.3906,11 L43.3906,4.98438 L44.3906,4.98438 L44.3906,5.92188 C44.6094,5.54688 44.8776,5.27344 45.1953,5.10156 C45.513,4.92969 45.8854,4.84375 46.3125,4.84375 C46.75,4.84375 47.1224,4.95313 47.4297,5.17188 C47.737,5.39063 47.9635,5.71354 48.1094,6.14063 M54.4531,10.0938 L56.2344,10.0938 L56.2344,3.96875 L54.2969,4.35938 L54.2969,3.375 L56.2188,2.98438 L57.3125,2.98438 L57.3125,10.0938 L59.0781,10.0938 L59.0781,11 L54.4531,11 L54.4531,10.0938 M62.875,2.98438 L63.7813,2.98438 L60.9844,12.0156 L60.0781,12.0156 L62.875,2.98438 M65.7969,3.28125 L65.7969,4.98438 L67.8281,4.98438 L67.8281,5.75 L65.7969,5.75 L65.7969,9.01563 C65.7969,9.50521 65.8646,9.82031 66,9.96094 C66.1354,10.1016 66.4063,10.1719 66.8125,10.1719 L67.8281,10.1719 L67.8281,11 L66.8125,11 C66.0521,11 65.526,10.8568 65.2344,10.5703 C64.9427,10.2839 64.7969,9.76563 64.7969,9.01563 L64.7969,5.75 L64.0781,5.75 L64.0781,4.98438 L64.7969,4.98438 L64.7969,3.28125 L65.7969,3.28125 M69.0313,8.625 L69.0313,4.98438 L70.0156,4.98438 L70.0156,8.59375 C70.0156,9.15625 70.1276,9.58073 70.3516,9.86719 C70.5755,10.1536 70.9063,10.2969 71.3438,10.2969 C71.8854,10.2969 72.3099,10.1276 72.6172,9.78906 C72.9245,9.45052 73.0781,8.98438 73.0781,8.39063 L73.0781,4.98438 L74.0625,4.98438 L74.0625,11 L73.0781,11 L73.0781,10.0781 C72.8385,10.4427 72.5599,10.7135 72.2422,10.8906 C71.9245,11.0677 71.5573,11.1563 71.1406,11.1563 C70.4531,11.1563 69.9297,10.9401 69.5703,10.5078 C69.2109,10.0755 69.0313,9.44792 69.0313,8.625 M79.5781,5.90625 C79.474,5.84375 79.3568,5.79688 79.2266,5.76563 C79.0964,5.73438 78.9531,5.71875 78.7969,5.71875 C78.2344,5.71875 77.8047,5.90104 77.5078,6.26563 C77.2109,6.63021 77.0625,7.15104 77.0625,7.82813 L77.0625,11 L76.0625,11 L76.0625,4.98438 L77.0625,4.98438 L77.0625,5.92188 C77.2604,5.55729 77.526,5.28646 77.8594,5.10938 C78.1927,4.93229 78.599,4.84375 79.0781,4.84375 C79.151,4.84375 79.2266,4.84635 79.3047,4.85156 C79.3828,4.85677 79.474,4.86979 79.5781,4.89063 L79.5781,5.90625 M81.5938,3.28125 L81.5938,4.98438 L83.625,4.98438 L83.625,5.75 L81.5938,5.75 L81.5938,9.01563 C81.5938,9.50521 81.6615,9.82031 81.7969,9.96094 C81.9323,10.1016 82.2031,10.1719 82.6094,10.1719 L83.625,10.1719 L83.625,11 L82.6094,11 C81.849,11 81.3229,10.8568 81.0313,10.5703 C80.7396,10.2839 80.5938,9.76563 80.5938,9.01563 L80.5938,5.75 L79.875,5.75 L79.875,4.98438 L80.5938,4.98438 L80.5938,3.28125 L81.5938,3.28125 M84.9219,2.64063 L85.9219,2.64063 L85.9219,11 L84.9219,11 L84.9219,2.64063 M93.125,7.75 L93.125,8.23438 L88.5781,8.23438 C88.6198,8.91146 88.8229,9.42708 89.1875,9.78125 C89.5521,10.1354 90.0625,10.3125 90.7188,10.3125 C91.1042,10.3125 91.474,10.2656 91.8281,10.1719 C92.1823,10.0781 92.5365,9.94271 92.8906,9.76563 L92.8906,10.6875 C92.5365,10.8438 92.1719,10.9609 91.7969,11.0391 C91.4219,11.1172 91.0469,11.1563 90.6719,11.1563 C89.7031,11.1563 88.9401,10.8776 88.3828,10.3203 C87.8255,9.76302 87.5469,9.00521 87.5469,8.04688 C87.5469,7.06771 87.8125,6.28906 88.3438,5.71094 C88.875,5.13281 89.5938,4.84375 90.5,4.84375 C91.3021,4.84375 91.9401,5.10417 92.4141,5.625 C92.888,6.14583 93.125,6.85417 93.125,7.75 M92.125,7.45313 C92.125,6.91146 91.9766,6.47917 91.6797,6.15625 C91.3828,5.83333 90.9896,5.67188 90.5,5.67188 C89.9479,5.67188 89.5078,5.82813 89.1797,6.14063 C88.8516,6.45313 88.6615,6.89063 88.6094,7.45313 L92.125,7.45313 M95.0625,10.0938 L96.8438,10.0938 L96.8438,3.96875 L94.9063,4.35938 L94.9063,3.375 L96.8281,2.98438 L97.9219,2.98438 L97.9219,10.0938 L99.6875,10.0938 L99.6875,11 L95.0625,11 L95.0625,10.0938 M103.484,2.98438 L104.391,2.98438 L101.594,12.0156 L100.688,12.0156 L103.484,2.98438 M109.75,5.21875 L109.75,6.14063 C109.479,5.98438 109.203,5.86719 108.922,5.78906 C108.641,5.71094 108.354,5.67188 108.063,5.67188 C107.427,5.67188 106.932,5.875 106.578,6.28125 C106.224,6.6875 106.047,7.26042 106.047,8 C106.047,8.72917 106.224,9.29688 106.578,9.70313 C106.932,10.1094 107.427,10.3125 108.063,10.3125 C108.354,10.3125 108.641,10.276 108.922,10.2031 C109.203,10.1302 109.479,10.0156 109.75,9.85938 L109.75,10.7656 C109.479,10.901 109.195,11 108.898,11.0625 C108.602,11.125 108.286,11.1563 107.953,11.1563 C107.047,11.1563 106.328,10.8724 105.797,10.3047 C105.266,9.73698 105,8.96875 105,8 C105,7.02083 105.268,6.25 105.805,5.6875 C106.341,5.125 107.078,4.84375 108.016,4.84375 C108.328,4.84375 108.628,4.875 108.914,4.9375 C109.201,5 109.479,5.09375 109.75,5.21875 M116.156,6.14063 C116.406,5.69271 116.703,5.36458 117.047,5.15625 C117.391,4.94792 117.797,4.84375 118.266,4.84375 C118.891,4.84375 119.372,5.0625 119.711,5.5 C120.049,5.9375 120.219,6.5625 120.219,7.375 L120.219,11 L119.219,11 L119.219,7.40625 C119.219,6.82292 119.117,6.39323 118.914,6.11719 C118.711,5.84115 118.401,5.70313 117.984,5.70313 C117.474,5.70313 117.07,5.8724 116.773,6.21094 C116.477,6.54948 116.328,7.01042 116.328,7.59375 L116.328,11 L115.328,11 L115.328,7.40625 C115.328,6.82292 115.227,6.39323 115.023,6.11719 C114.82,5.84115 114.505,5.70313 114.078,5.70313 C113.578,5.70313 113.18,5.8724 112.883,6.21094 C112.586,6.54948 112.438,7.01042 112.438,7.59375 L112.438,11 L111.438,11 L111.438,4.98438 L112.438,4.98438 L112.438,5.92188 C112.656,5.54688 112.924,5.27344 113.242,5.10156 C113.56,4.92969 113.932,4.84375 114.359,4.84375 C114.797,4.84375 115.169,4.95313 115.477,5.17188 C115.784,5.39063 116.01,5.71354 116.156,6.14063 M126.141,5.89063 L126.141,2.64063 L127.125,2.64063 L127.125,11 L126.141,11 L126.141,10.0938 C125.932,10.4583 125.669,10.7266 125.352,10.8984 C125.034,11.0703 124.651,11.1563 124.203,11.1563 C123.484,11.1563 122.896,10.8672 122.438,10.2891 C121.979,9.71094 121.75,8.94792 121.75,8 C121.75,7.05208 121.979,6.28906 122.438,5.71094 C122.896,5.13281 123.484,4.84375 124.203,4.84375 C124.651,4.84375 125.034,4.92969 125.352,5.10156 C125.669,5.27344 125.932,5.53646 126.141,5.89063 M122.766,8 C122.766,8.72917 122.917,9.29948 123.219,9.71094 C123.521,10.1224 123.932,10.3281 124.453,10.3281 C124.974,10.3281 125.385,10.1224 125.688,9.71094 C125.99,9.29948 126.141,8.72917 126.141,8 C126.141,7.27083 125.99,6.70052 125.688,6.28906 C125.385,5.8776 124.974,5.67188 124.453,5.67188 C123.932,5.67188 123.521,5.8776 123.219,6.28906 C122.917,6.70052 122.766,7.27083 122.766,8 M133.719,12.8281 L133.719,13.5938 L128,13.5938 L128,12.8281 L133.719,12.8281 M133.938,4.98438 L134.984,4.98438 L136.859,10.0313 L138.75,4.98438 L139.797,4.98438 L137.531,11 L136.188,11 L133.938,4.98438 M146.297,7.75 L146.297,8.23438 L141.75,8.23438 C141.792,8.91146 141.995,9.42708 142.359,9.78125 C142.724,10.1354 143.234,10.3125 143.891,10.3125 C144.276,10.3125 144.646,10.2656 145,10.1719 C145.354,10.0781 145.708,9.94271 146.063,9.76563 L146.063,10.6875 C145.708,10.8438 145.344,10.9609 144.969,11.0391 C144.594,11.1172 144.219,11.1563 143.844,11.1563 C142.875,11.1563 142.112,10.8776 141.555,10.3203 C140.997,9.76302 140.719,9.00521 140.719,8.04688 C140.719,7.06771 140.984,6.28906 141.516,5.71094 C142.047,5.13281 142.766,4.84375 143.672,4.84375 C144.474,4.84375 145.112,5.10417 145.586,5.625 C146.06,6.14583 146.297,6.85417 146.297,7.75 M145.297,7.45313 C145.297,6.91146 145.148,6.47917 144.852,6.15625 C144.555,5.83333 144.161,5.67188 143.672,5.67188 C143.12,5.67188 142.68,5.82813 142.352,6.14063 C142.023,6.45313 141.833,6.89063 141.781,7.45313 L145.297,7.45313 M147.906,2.64063 L148.906,2.64063 L148.906,11 L147.906,11 L147.906,2.64063"/>
</g>

<g fill="none" stroke="#000000" stroke-opacity="1" stroke-width="1" stroke-linecap="square" stroke-linejoin="bevel" transform="matrix(1.99983,0,0,1.99983,62.0698,21.9982)"
font-family="sans" font-size="11" font-weight="100" font-style="normal" 
>
</g>

<g fill="none" stroke="#000000" stroke-opacity="1" stroke-width="1" stroke-linecap="square" stroke-linejoin="bevel" transform="matrix(1.99983,0,0,1.99983,62.0698,21.9982)"
font-family="Ubuntu" font-size="11" font-weight="400" font-style="normal" 
>
</g>

<g fill="none" stroke="#000000" stroke-opacity="1" stroke-width="1" stroke-linecap="square" stroke-linejoin="bevel" transform="matrix(1.99983,0,0,1.99983,-0.00319973,71.994)"
font-family="Ubuntu" font-size="11" font-weight="400" font-style="normal" 
>
</g>

<g fill="none" stroke="#000000" stroke-opacity="1" stroke-width="1" stroke-linecap="square" stroke-linejoin="bevel" transform="matrix(1.99983,0,0,1.99983,-0.00319973,71.994)"
font-family="Ubuntu" font-size="11" font-weight="400" font-style="normal" 
>
</g>

<g fill="none" stroke="#000000" stroke-opacity="1" stroke-width="1" stroke-linecap="square" stroke-linejoin="bevel" transform="matrix(1.99983,0,0,1.99983,-0.00319973,71.994)"
font-family="Ubuntu" font-size="11" font-weight="400" font-style="normal" 
>
</g>

<g fill="none" stroke="#000000" stroke-opacity="1" stroke-width="1" stroke-linecap="square" stroke-linejoin="round" transform="matrix(1.99983,0,0,1.99983,-0.00319973,71.994)"
font-family="Ubuntu" font-size="11" font-weight="400" font-style="normal" 
>
<ellipse cx="307.89" cy="-18" rx="81.3928" ry="17.5"/>
</g>

<g fill="none" stroke="#000000" stroke-opacity="1" stroke-width="1" stroke-linecap="square" stroke-linejoin="bevel" transform="matrix(1.99983,0,0,1.99983,-0.00319973,71.994)"
font-family="Ubuntu" font-size="11" font-weight="400" font-style="normal" 
>
</g>

<g fill="none" stroke="#000000" stroke-opacity="1" stroke-width="1" stroke-linecap="square" stroke-linejoin="bevel" transform="matrix(1.99983,0,0,1.99983,532.482,21.9982)"
font-family="Ubuntu" font-size="11" font-weight="400" font-style="normal" 
>
</g>

<g fill="none" stroke="#000000" stroke-opacity="1" stroke-width="1" stroke-linecap="square" stroke-linejoin="bevel" transform="matrix(1.99983,0,0,1.99983,532.482,21.9982)"
font-family="sans" font-size="11" font-weight="100" font-style="normal" 
>
</g>

<g fill="#000000" fill-opacity="1" stroke="#000000" stroke-opacity="1" stroke-width="1" stroke-linecap="square" stroke-linejoin="round" transform="matrix(1.99983,0,0,1.99983,532.482,21.9982)"
font-family="sans" font-size="11" font-weight="100" font-style="normal" 
>
<path vector-effect="none" fill-rule="nonzero" d="M2.79688,2.98438 L3.70313,2.98438 L0.90625,12.0156 L0,12.0156 L2.79688,2.98438 M5.71875,3.28125 L5.71875,4.98438 L7.75,4.98438 L7.75,5.75 L5.71875,5.75 L5.71875,9.01563 C5.71875,9.50521 5.78646,9.82031 5.92188,9.96094 C6.05729,10.1016 6.32813,10.1719 6.73438,10.1719 L7.75,10.1719 L7.75,11 L6.73438,11 C5.97396,11 5.44792,10.8568 5.15625,10.5703 C4.86458,10.2839 4.71875,9.76563 4.71875,9.01563 L4.71875,5.75 L4,5.75 L4,4.98438 L4.71875,4.98438 L4.71875,3.28125 L5.71875,3.28125 M8.95313,8.625 L8.95313,4.98438 L9.9375,4.98438 L9.9375,8.59375 C9.9375,9.15625 10.0495,9.58073 10.2734,9.86719 C10.4974,10.1536 10.8281,10.2969 11.2656,10.2969 C11.8073,10.2969 12.2318,10.1276 12.5391,9.78906 C12.8464,9.45052 13,8.98438 13,8.39063 L13,4.98438 L13.9844,4.98438 L13.9844,11 L13,11 L13,10.0781 C12.7604,10.4427 12.4818,10.7135 12.1641,10.8906 C11.8464,11.0677 11.4792,11.1563 11.0625,11.1563 C10.375,11.1563 9.85156,10.9401 9.49219,10.5078 C9.13281,10.0755 8.95313,9.44792 8.95313,8.625 M19.5,5.90625 C19.3958,5.84375 19.2786,5.79688 19.1484,5.76563 C19.0182,5.73438 18.875,5.71875 18.7188,5.71875 C18.1563,5.71875 17.7266,5.90104 17.4297,6.26563 C17.1328,6.63021 16.9844,7.15104 16.9844,7.82813 L16.9844,11 L15.9844,11 L15.9844,4.98438 L16.9844,4.98438 L16.9844,5.92188 C17.1823,5.55729 17.4479,5.28646 17.7813,5.10938 C18.1146,4.93229 18.5208,4.84375 19,4.84375 C19.0729,4.84375 19.1484,4.84635 19.2266,4.85156 C19.3047,4.85677 19.3958,4.86979 19.5,4.89063 L19.5,5.90625 M21.5156,3.28125 L21.5156,4.98438 L23.5469,4.98438 L23.5469,5.75 L21.5156,5.75 L21.5156,9.01563 C21.5156,9.50521 21.5833,9.82031 21.7188,9.96094 C21.8542,10.1016 22.125,10.1719 22.5313,10.1719 L23.5469,10.1719 L23.5469,11 L22.5313,11 C21.7708,11 21.2448,10.8568 20.9531,10.5703 C20.6615,10.2839 20.5156,9.76563 20.5156,9.01563 L20.5156,5.75 L19.7969,5.75 L19.7969,4.98438 L20.5156,4.98438 L20.5156,3.28125 L21.5156,3.28125 M24.8438,2.64063 L25.8438,2.64063 L25.8438,11 L24.8438,11 L24.8438,2.64063 M33.0469,7.75 L33.0469,8.23438 L28.5,8.23438 C28.5417,8.91146 28.7448,9.42708 29.1094,9.78125 C29.474,10.1354 29.9844,10.3125 30.6406,10.3125 C31.026,10.3125 31.3958,10.2656 31.75,10.1719 C32.1042,10.0781 32.4583,9.94271 32.8125,9.76563 L32.8125,10.6875 C32.4583,10.8438 32.0938,10.9609 31.7188,11.0391 C31.3438,11.1172 30.9688,11.1563 30.5938,11.1563 C29.625,11.1563 28.862,10.8776 28.3047,10.3203 C27.7474,9.76302 27.4688,9.00521 27.4688,8.04688 C27.4688,7.06771 27.7344,6.28906 28.2656,5.71094 C28.7969,5.13281 29.5156,4.84375 30.4219,4.84375 C31.224,4.84375 31.862,5.10417 32.3359,5.625 C32.8099,6.14583 33.0469,6.85417 33.0469,7.75 M32.0469,7.45313 C32.0469,6.91146 31.8984,6.47917 31.6016,6.15625 C31.3047,5.83333 30.9115,5.67188 30.4219,5.67188 C29.8698,5.67188 29.4297,5.82813 29.1016,6.14063 C28.7734,6.45313 28.5833,6.89063 28.5313,7.45313 L32.0469,7.45313 M38.5,5.15625 L38.5,6.09375 C38.2188,5.94792 37.9271,5.84115 37.625,5.77344 C37.3229,5.70573 37.0104,5.67188 36.6875,5.67188 C36.1979,5.67188 35.8307,5.7474 35.5859,5.89844 C35.3411,6.04948 35.2188,6.27083 35.2188,6.5625 C35.2188,6.79167 35.3073,6.97135 35.4844,7.10156 C35.6615,7.23177 36.0156,7.35938 36.5469,7.48438 L36.875,7.5625 C37.5833,7.70833 38.0833,7.91927 38.375,8.19531 C38.6667,8.47135 38.8125,8.85417 38.8125,9.34375 C38.8125,9.89583 38.5938,10.3359 38.1563,10.6641 C37.7188,10.9922 37.1094,11.1563 36.3281,11.1563 C36.0052,11.1563 35.6693,11.125 35.3203,11.0625 C34.9714,11 34.6042,10.9063 34.2188,10.7813 L34.2188,9.76563 C34.5833,9.95313 34.9427,10.0938 35.2969,10.1875 C35.651,10.2813 36.0052,10.3281 36.3594,10.3281 C36.8177,10.3281 37.1719,10.2474 37.4219,10.0859 C37.6719,9.92448 37.7969,9.70313 37.7969,9.42188 C37.7969,9.15104 37.7083,8.94271 37.5313,8.79688 C37.3542,8.65104 36.9583,8.51563 36.3438,8.39063 L36,8.29688 C35.3854,8.17188 34.9427,7.97656 34.6719,7.71094 C34.401,7.44531 34.2656,7.07813 34.2656,6.60938 C34.2656,6.04688 34.4661,5.61198 34.8672,5.30469 C35.2682,4.9974 35.8385,4.84375 36.5781,4.84375 C36.9427,4.84375 37.2865,4.86979 37.6094,4.92188 C37.9323,4.97396 38.2292,5.05208 38.5,5.15625 M40.375,4.98438 L41.375,4.98438 L41.375,11 L40.375,11 L40.375,4.98438 M40.375,2.64063 L41.375,2.64063 L41.375,3.89063 L40.375,3.89063 L40.375,2.64063 M48.1094,6.14063 C48.3594,5.69271 48.6563,5.36458 49,5.15625 C49.3438,4.94792 49.75,4.84375 50.2188,4.84375 C50.8438,4.84375 51.3255,5.0625 51.6641,5.5 C52.0026,5.9375 52.1719,6.5625 52.1719,7.375 L52.1719,11 L51.1719,11 L51.1719,7.40625 C51.1719,6.82292 51.0703,6.39323 50.8672,6.11719 C50.6641,5.84115 50.3542,5.70313 49.9375,5.70313 C49.4271,5.70313 49.0234,5.8724 48.7266,6.21094 C48.4297,6.54948 48.2813,7.01042 48.2813,7.59375 L48.2813,11 L47.2813,11 L47.2813,7.40625 C47.2813,6.82292 47.1797,6.39323 46.9766,6.11719 C46.7734,5.84115 46.4583,5.70313 46.0313,5.70313 C45.5313,5.70313 45.1328,5.8724 44.8359,6.21094 C44.5391,6.54948 44.3906,7.01042 44.3906,7.59375 L44.3906,11 L43.3906,11 L43.3906,4.98438 L44.3906,4.98438 L44.3906,5.92188 C44.6094,5.54688 44.8776,5.27344 45.1953,5.10156 C45.513,4.92969 45.8854,4.84375 46.3125,4.84375 C46.75,4.84375 47.1224,4.95313 47.4297,5.17188 C47.737,5.39063 47.9635,5.71354 48.1094,6.14063 M54.4531,10.0938 L56.2344,10.0938 L56.2344,3.96875 L54.2969,4.35938 L54.2969,3.375 L56.2188,2.98438 L57.3125,2.98438 L57.3125,10.0938 L59.0781,10.0938 L59.0781,11 L54.4531,11 L54.4531,10.0938 M62.875,2.98438 L63.7813,2.98438 L60.9844,12.0156 L60.0781,12.0156 L62.875,2.98438 M68.6563,5.15625 L68.6563,6.09375 C68.375,5.94792 68.0833,5.84115 67.7813,5.77344 C67.4792,5.70573 67.1667,5.67188 66.8438,5.67188 C66.3542,5.67188 65.987,5.7474 65.7422,5.89844 C65.4974,6.04948 65.375,6.27083 65.375,6.5625 C65.375,6.79167 65.4635,6.97135 65.6406,7.10156 C65.8177,7.23177 66.1719,7.35938 66.7031,7.48438 L67.0313,7.5625 C67.7396,7.70833 68.2396,7.91927 68.5313,8.19531 C68.8229,8.47135 68.9688,8.85417 68.9688,9.34375 C68.9688,9.89583 68.75,10.3359 68.3125,10.6641 C67.875,10.9922 67.2656,11.1563 66.4844,11.1563 C66.1615,11.1563 65.8255,11.125 65.4766,11.0625 C65.1276,11 64.7604,10.9063 64.375,10.7813 L64.375,9.76563 C64.7396,9.95313 65.099,10.0938 65.4531,10.1875 C65.8073,10.2813 66.1615,10.3281 66.5156,10.3281 C66.974,10.3281 67.3281,10.2474 67.5781,10.0859 C67.8281,9.92448 67.9531,9.70313 67.9531,9.42188 C67.9531,9.15104 67.8646,8.94271 67.6875,8.79688 C67.5104,8.65104 67.1146,8.51563 66.5,8.39063 L66.1563,8.29688 C65.5417,8.17188 65.099,7.97656 64.8281,7.71094 C64.5573,7.44531 64.4219,7.07813 64.4219,6.60938 C64.4219,6.04688 64.6224,5.61198 65.0234,5.30469 C65.4245,4.9974 65.9948,4.84375 66.7344,4.84375 C67.099,4.84375 67.4427,4.86979 67.7656,4.92188 C68.0885,4.97396 68.3854,5.05208 68.6563,5.15625 M70.5313,4.98438 L71.5313,4.98438 L71.5313,11 L70.5313,11 L70.5313,4.98438 M70.5313,2.64063 L71.5313,2.64063 L71.5313,3.89063 L70.5313,3.89063 L70.5313,2.64063 M78.2656,6.14063 C78.5156,5.69271 78.8125,5.36458 79.1563,5.15625 C79.5,4.94792 79.9063,4.84375 80.375,4.84375 C81,4.84375 81.4818,5.0625 81.8203,5.5 C82.1589,5.9375 82.3281,6.5625 82.3281,7.375 L82.3281,11 L81.3281,11 L81.3281,7.40625 C81.3281,6.82292 81.2266,6.39323 81.0234,6.11719 C80.8203,5.84115 80.5104,5.70313 80.0938,5.70313 C79.5833,5.70313 79.1797,5.8724 78.8828,6.21094 C78.5859,6.54948 78.4375,7.01042 78.4375,7.59375 L78.4375,11 L77.4375,11 L77.4375,7.40625 C77.4375,6.82292 77.3359,6.39323 77.1328,6.11719 C76.9297,5.84115 76.6146,5.70313 76.1875,5.70313 C75.6875,5.70313 75.2891,5.8724 74.9922,6.21094 C74.6953,6.54948 74.5469,7.01042 74.5469,7.59375 L74.5469,11 L73.5469,11 L73.5469,4.98438 L74.5469,4.98438 L74.5469,5.92188 C74.7656,5.54688 75.0339,5.27344 75.3516,5.10156 C75.6693,4.92969 76.0417,4.84375 76.4688,4.84375 C76.9063,4.84375 77.2786,4.95313 77.5859,5.17188 C77.8932,5.39063 78.1198,5.71354 78.2656,6.14063 "/>
</g>

<g fill="none" stroke="#000000" stroke-opacity="1" stroke-width="1" stroke-linecap="square" stroke-linejoin="bevel" transform="matrix(1.99983,0,0,1.99983,532.482,21.9982)"
font-family="sans" font-size="11" font-weight="100" font-style="normal" 
>
</g>

<g fill="none" stroke="#000000" stroke-opacity="1" stroke-width="1" stroke-linecap="square" stroke-linejoin="bevel" transform="matrix(1.99983,0,0,1.99983,532.482,21.9982)"
font-family="Ubuntu" font-size="11" font-weight="400" font-style="normal" 
>
</g>

<g fill="none" stroke="#000000" stroke-opacity="1" stroke-width="1" stroke-linecap="square" stroke-linejoin="bevel" transform="matrix(1.99983,0,0,1.99983,-0.00319973,71.994)"
font-family="Ubuntu" font-size="11" font-weight="400" font-style="normal" 
>
</g>

<g fill="none" stroke="#000000" stroke-opacity="1" stroke-width="1" stroke-linecap="square" stroke-linejoin="bevel" transform="matrix(1.99983,0,0,1.99983,-0.00319973,71.994)"
font-family="Ubuntu" font-size="11" font-weight="400" font-style="normal" 
>
</g>

<g fill="none" stroke="#000000" stroke-opacity="1" stroke-width="1" stroke-linecap="square" stroke-linejoin="bevel" transform="matrix(1.99983,0,0,1.99983,-0.00319973,71.994)"
font-family="Ubuntu" font-size="11" font-weight="400" font-style="normal" 
>
</g>

<g fill="none" stroke="#000000" stroke-opacity="1" stroke-width="1" stroke-linecap="square" stroke-linejoin="round" transform="matrix(1.99983,0,0,1.99983,-0.00319973,71.994)"
font-family="Ubuntu" font-size="11" font-weight="400" font-style="normal" 
>
<path vector-effect="none" fill-rule="evenodd" d="M916.49,-18 C917.64,-18 918.8,-18 919.95,-18 "/>
</g>

<g fill="none" stroke="#000000" stroke-opacity="1" stroke-width="1" stroke-linecap="square" stroke-linejoin="bevel" transform="matrix(1.99983,0,0,1.99983,-0.00319973,71.994)"
font-family="Ubuntu" font-size="11" font-weight="400" font-style="normal" 
>
</g>

<g fill="none" stroke="#000000" stroke-opacity="1" stroke-width="1" stroke-linecap="square" stroke-linejoin="bevel" transform="matrix(1.99983,0,0,1.99983,-0.00319973,71.994)"
font-family="Ubuntu" font-size="11" font-weight="400" font-style="normal" 
>
</g>

<g fill="#000000" fill-opacity="1" stroke="#000000" stroke-opacity="1" stroke-width="1" stroke-linecap="square" stroke-linejoin="round" transform="matrix(1.99983,0,0,1.99983,-0.00319973,71.994)"
font-family="Ubuntu" font-size="11" font-weight="400" font-style="normal" 
>
<path vector-effect="none" fill-rule="evenodd" d="M919.95,-18 L919.95,-14.402 L930.23,-18 L919.95,-21.598 L919.95,-18"/>
</g>

<g fill="none" stroke="#000000" stroke-opacity="1" stroke-width="1" stroke-linecap="square" stroke-linejoin="bevel" transform="matrix(1.99983,0,0,1.99983,-0.00319973,71.994)"
font-family="Ubuntu" font-size="11" font-weight="400" font-style="normal" 
>
</g>

<g fill="none" stroke="#000000" stroke-opacity="1" stroke-width="1" stroke-linecap="square" stroke-linejoin="bevel" transform="matrix(1.99983,0,0,1.99983,-0.00319973,71.994)"
font-family="Ubuntu" font-size="11" font-weight="400" font-style="normal" 
>
</g>

<g fill="none" stroke="#000000" stroke-opacity="1" stroke-width="1" stroke-linecap="square" stroke-linejoin="bevel" transform="matrix(1.99983,0,0,1.99983,-0.00319973,71.994)"
font-family="Ubuntu" font-size="11" font-weight="400" font-style="normal" 
>
</g>

<g fill="none" stroke="#000000" stroke-opacity="1" stroke-width="1" stroke-linecap="square" stroke-linejoin="bevel" transform="matrix(1.99983,0,0,1.99983,-0.00319973,71.994)"
font-family="Ubuntu" font-size="11" font-weight="400" font-style="normal" 
>
</g>

<g fill="none" stroke="#000000" stroke-opacity="1" stroke-width="1" stroke-linecap="square" stroke-linejoin="round" transform="matrix(1.99983,0,0,1.99983,-0.00319973,71.994)"
font-family="Ubuntu" font-size="11" font-weight="400" font-style="normal" 
>
<path vector-effect="none" fill-rule="evenodd" d="M591.83,-18 C593.02,-18 594.21,-18 595.39,-18 "/>
</g>

<g fill="none" stroke="#000000" stroke-opacity="1" stroke-width="1" stroke-linecap="square" stroke-linejoin="bevel" transform="matrix(1.99983,0,0,1.99983,-0.00319973,71.994)"
font-family="Ubuntu" font-size="11" font-weight="400" font-style="normal" 
>
</g>

<g fill="none" stroke="#000000" stroke-opacity="1" stroke-width="1" stroke-linecap="square" stroke-linejoin="bevel" transform="matrix(1.99983,0,0,1.99983,-0.00319973,71.994)"
font-family="Ubuntu" font-size="11" font-weight="400" font-style="normal" 
>
</g>

<g fill="#000000" fill-opacity="1" stroke="#000000" stroke-opacity="1" stroke-width="1" stroke-linecap="square" stroke-linejoin="round" transform="matrix(1.99983,0,0,1.99983,-0.00319973,71.994)"
font-family="Ubuntu" font-size="11" font-weight="400" font-style="normal" 
>
<path vector-effect="none" fill-rule="evenodd" d="M595.39,-18 L595.39,-14.3845 L605.72,-18 L595.39,-21.6155 L595.39,-18"/>
</g>

<g fill="none" stroke="#000000" stroke-opacity="1" stroke-width="1" stroke-linecap="square" stroke-linejoin="bevel" transform="matrix(1.99983,0,0,1.99983,-0.00319973,71.994)"
font-family="Ubuntu" font-size="11" font-weight="400" font-style="normal" 
>
</g>

<g fill="none" stroke="#000000" stroke-opacity="1" stroke-width="1" stroke-linecap="square" stroke-linejoin="bevel" transform="matrix(1.99983,0,0,1.99983,-0.00319973,71.994)"
font-family="Ubuntu" font-size="11" font-weight="400" font-style="normal" 
>
</g>

<g fill="none" stroke="#000000" stroke-opacity="1" stroke-width="1" stroke-linecap="square" stroke-linejoin="bevel" transform="matrix(1.99983,0,0,1.99983,-0.00319973,71.994)"
font-family="Ubuntu" font-size="11" font-weight="400" font-style="normal" 
>
</g>

<g fill="none" stroke="#000000" stroke-opacity="1" stroke-width="1" stroke-linecap="square" stroke-linejoin="bevel" transform="matrix(1.99983,0,0,1.99983,-0.00319973,71.994)"
font-family="Ubuntu" font-size="11" font-weight="400" font-style="normal" 
>
</g>

<g fill="none" stroke="#000000" stroke-opacity="1" stroke-width="1" stroke-linecap="square" stroke-linejoin="round" transform="matrix(1.99983,0,0,1.99983,-0.00319973,71.994)"
font-family="Ubuntu" font-size="11" font-weight="400" font-style="normal" 
>
<path vector-effect="none" fill-rule="evenodd" d="M212.21,-18 C213.37,-18 214.52,-18 215.67,-18 "/>
</g>

<g fill="none" stroke="#000000" stroke-opacity="1" stroke-width="1" stroke-linecap="square" stroke-linejoin="bevel" transform="matrix(1.99983,0,0,1.99983,-0.00319973,71.994)"
font-family="Ubuntu" font-size="11" font-weight="400" font-style="normal" 
>
</g>

<g fill="none" stroke="#000000" stroke-opacity="1" stroke-width="1" stroke-linecap="square" stroke-linejoin="bevel" transform="matrix(1.99983,0,0,1.99983,-0.00319973,71.994)"
font-family="Ubuntu" font-size="11" font-weight="400" font-style="normal" 
>
</g>

<g fill="#000000" fill-opacity="1" stroke="#000000" stroke-opacity="1" stroke-width="1" stroke-linecap="square" stroke-linejoin="round" transform="matrix(1.99983,0,0,1.99983,-0.00319973,71.994)"
font-family="Ubuntu" font-size="11" font-weight="400" font-style="normal" 
>
<path vector-effect="none" fill-rule="evenodd" d="M215.67,-18 L215.67,-14.3985 L225.96,-18 L215.67,-21.6015 L215.67,-18"/>
</g>

<g fill="none" stroke="#000000" stroke-opacity="1" stroke-width="1" stroke-linecap="square" stroke-linejoin="bevel" transform="matrix(1.99983,0,0,1.99983,-0.00319973,71.994)"
font-family="Ubuntu" font-size="11" font-weight="400" font-style="normal" 
>
</g>

<g fill="none" stroke="#000000" stroke-opacity="1" stroke-width="1" stroke-linecap="square" stroke-linejoin="bevel" transform="matrix(1.99983,0,0,1.99983,-0.00319973,71.994)"
font-family="Ubuntu" font-size="11" font-weight="400" font-style="normal" 
>
</g>

<g fill="none" stroke="#000000" stroke-opacity="1" stroke-width="1" stroke-linecap="square" stroke-linejoin="bevel" transform="matrix(1.99983,0,0,1.99983,-0.00319973,71.994)"
font-family="Ubuntu" font-size="11" font-weight="400" font-style="normal" 
>
</g>

<g fill="none" stroke="#000000" stroke-opacity="1" stroke-width="1" stroke-linecap="square" stroke-linejoin="bevel" transform="matrix(1.99983,0,0,1.99983,-0.00319973,71.994)"
font-family="Ubuntu" font-size="11" font-weight="400" font-style="normal" 
>
</g>

<g fill="none" stroke="#000000" stroke-opacity="1" stroke-width="1" stroke-linecap="square" stroke-linejoin="round" transform="matrix(1.99983,0,0,1.99983,-0.00319973,71.994)"
font-family="Ubuntu" font-size="11" font-weight="400" font-style="normal" 
>
<path vector-effect="none" fill-rule="evenodd" d="M690.3,-18 C691.55,-18 692.82,-18 694.1,-18 "/>
</g>

<g fill="none" stroke="#000000" stroke-opacity="1" stroke-width="1" stroke-linecap="square" stroke-linejoin="bevel" transform="matrix(1.99983,0,0,1.99983,-0.00319973,71.994)"
font-family="Ubuntu" font-size="11" font-weight="400" font-style="normal" 
>
</g>

<g fill="none" stroke="#000000" stroke-opacity="1" stroke-width="1" stroke-linecap="square" stroke-linejoin="bevel" transform="matrix(1.99983,0,0,1.99983,-0.00319973,71.994)"
font-family="Ubuntu" font-size="11" font-weight="400" font-style="normal" 
>
</g>

<g fill="#000000" fill-opacity="1" stroke="#000000" stroke-opacity="1" stroke-width="1" stroke-linecap="square" stroke-linejoin="round" transform="matrix(1.99983,0,0,1.99983,-0.00319973,71.994)"
font-family="Ubuntu" font-size="11" font-weight="400" font-style="normal" 
>
<path vector-effect="none" fill-rule="evenodd" d="M694.1,-18 L694.1,-14.4615 L704.21,-18 L694.1,-21.5385 L694.1,-18"/>
</g>

<g fill="none" stroke="#000000" stroke-opacity="1" stroke-width="1" stroke-linecap="square" stroke-linejoin="bevel" transform="matrix(1.99983,0,0,1.99983,-0.00319973,71.994)"
font-family="Ubuntu" font-size="11" font-weight="400" font-style="normal" 
>
</g>

<g fill="none" stroke="#000000" stroke-opacity="1" stroke-width="1" stroke-linecap="square" stroke-linejoin="bevel" transform="matrix(1.99983,0,0,1.99983,-0.00319973,71.994)"
font-family="Ubuntu" font-size="11" font-weight="400" font-style="normal" 
>
</g>

<g fill="none" stroke="#000000" stroke-opacity="1" stroke-width="1" stroke-linecap="square" stroke-linejoin="bevel" transform="matrix(1.99983,0,0,1.99983,-0.00319973,71.994)"
font-family="Ubuntu" font-size="11" font-weight="400" font-style="normal" 
>
</g>

<g fill="none" stroke="#000000" stroke-opacity="1" stroke-width="1" stroke-linecap="square" stroke-linejoin="bevel" transform="matrix(1.99983,0,0,1.99983,-0.00319973,71.994)"
font-family="Ubuntu" font-size="11" font-weight="400" font-style="normal" 
>
</g>

<g fill="none" stroke="#000000" stroke-opacity="1" stroke-width="1" stroke-linecap="square" stroke-linejoin="round" transform="matrix(1.99983,0,0,1.99983,-0.00319973,71.994)"
font-family="Ubuntu" font-size="11" font-weight="400" font-style="normal" 
>
<path vector-effect="none" fill-rule="evenodd" d="M389.94,-18 C391.08,-18 392.23,-18 393.37,-18 "/>
</g>

<g fill="none" stroke="#000000" stroke-opacity="1" stroke-width="1" stroke-linecap="square" stroke-linejoin="bevel" transform="matrix(1.99983,0,0,1.99983,-0.00319973,71.994)"
font-family="Ubuntu" font-size="11" font-weight="400" font-style="normal" 
>
</g>

<g fill="none" stroke="#000000" stroke-opacity="1" stroke-width="1" stroke-linecap="square" stroke-linejoin="bevel" transform="matrix(1.99983,0,0,1.99983,-0.00319973,71.994)"
font-family="Ubuntu" font-size="11" font-weight="400" font-style="normal" 
>
</g>

<g fill="#000000" fill-opacity="1" stroke="#000000" stroke-opacity="1" stroke-width="1" stroke-linecap="square" stroke-linejoin="round" transform="matrix(1.99983,0,0,1.99983,-0.00319973,71.994)"
font-family="Ubuntu" font-size="11" font-weight="400" font-style="normal" 
>
<path vector-effect="none" fill-rule="evenodd" d="M393.37,-18 L393.37,-14.374 L403.73,-18 L393.37,-21.626 L393.37,-18"/>
</g>

<g fill="none" stroke="#000000" stroke-opacity="1" stroke-width="1" stroke-linecap="square" stroke-linejoin="bevel" transform="matrix(1.99983,0,0,1.99983,-0.00319973,71.994)"
font-family="Ubuntu" font-size="11" font-weight="400" font-style="normal" 
>
</g>

<g fill="none" stroke="#000000" stroke-opacity="1" stroke-width="1" stroke-linecap="square" stroke-linejoin="bevel" transform="matrix(1,0,0,1,0,0)"
font-family="Ubuntu" font-size="11" font-weight="400" font-style="normal" 
>
</g>
</g>
</svg>
